<svg width="369" height="396" viewBox="0 0 369 396" fill="none" xmlns="http://www.w3.org/2000/svg">
<g clip-path="url(#clip0_4022_1991)">
<path d="M294.582 101.374C292.665 122.827 287.204 145.449 278.64 167.275C268.049 194.266 253.579 218.04 236.793 236.026L235.862 235.201C252.566 217.302 266.97 193.633 277.517 166.753C287.049 142.463 292.718 117.184 293.92 93.663L295.11 93.8654C294.984 96.3496 294.808 98.8525 294.582 101.374Z" fill="#F2F2F2"/>
<path d="M302.217 225.97C278.641 264.069 250.038 291.291 221.677 302.621L221.104 301.552C249.268 290.301 277.703 263.218 301.171 225.294L302.217 225.97Z" fill="#F2F2F2"/>
<path d="M294.01 128.084C292.093 149.538 286.632 172.159 278.067 193.985C267.476 220.976 253.006 244.75 236.221 262.736L235.29 261.911C251.993 244.012 266.398 220.343 276.945 193.463C286.476 169.173 292.146 143.895 293.347 120.373L294.538 120.575C294.411 123.06 294.235 125.563 294.01 128.084Z" fill="#F2F2F2"/>
<path d="M29.3411 183.161H13.8725C13.542 183.162 13.2157 183.087 12.9179 182.941C12.6202 182.795 12.3588 182.583 12.1533 182.32C11.9504 182.064 11.8072 181.764 11.7345 181.444C11.6618 181.123 11.6615 180.79 11.7337 180.469C13.2069 173.866 13.1144 167.002 11.4637 160.443C11.3593 160.011 11.3845 159.557 11.5362 159.14C11.6878 158.723 11.9589 158.361 12.3146 158.102C20.2686 152.291 26.5326 152.46 30.9328 158.604C31.1311 158.884 31.2629 159.207 31.3177 159.547C32.4934 166.727 32.5585 174.049 31.5106 181.248C31.4378 181.78 31.1778 182.266 30.779 182.618C30.3801 182.97 29.8693 183.163 29.3411 183.161Z" fill="#E6E6E6"/>
<path d="M24.5454 167.426H19.2242C18.93 167.426 18.6478 167.308 18.4397 167.096C18.2316 166.885 18.1147 166.598 18.1147 166.299C18.1147 166 18.2316 165.714 18.4397 165.502C18.6478 165.291 18.93 165.172 19.2242 165.172H24.5454C24.8393 165.173 25.1209 165.292 25.3285 165.503C25.536 165.715 25.6526 166.001 25.6526 166.299C25.6526 166.598 25.536 166.884 25.3285 167.095C25.1209 167.307 24.8393 167.426 24.5454 167.426Z" fill="white"/>
<path d="M24.5454 171.379H19.2242C18.93 171.379 18.6478 171.26 18.4397 171.049C18.2316 170.837 18.1147 170.551 18.1147 170.252C18.1147 169.953 18.2316 169.666 18.4397 169.455C18.6478 169.243 18.93 169.125 19.2242 169.125H24.5454C24.8393 169.125 25.1209 169.244 25.3285 169.456C25.536 169.667 25.6526 169.953 25.6526 170.252C25.6526 170.55 25.536 170.837 25.3285 171.048C25.1209 171.259 24.8393 171.378 24.5454 171.379Z" fill="white"/>
<path d="M24.5454 175.331H19.2242C18.93 175.331 18.6478 175.212 18.4397 175.001C18.2316 174.79 18.1147 174.503 18.1147 174.204C18.1147 173.905 18.2316 173.619 18.4397 173.407C18.6478 173.196 18.93 173.077 19.2242 173.077H24.5454C24.8393 173.078 25.1209 173.197 25.3285 173.408C25.536 173.619 25.6526 173.906 25.6526 174.204C25.6526 174.503 25.536 174.789 25.3285 175C25.1209 175.211 24.8393 175.33 24.5454 175.331Z" fill="white"/>
<path d="M310.467 253.316H294.999C294.668 253.316 294.342 253.241 294.044 253.096C293.746 252.95 293.485 252.738 293.279 252.475C293.076 252.218 292.933 251.919 292.86 251.598C292.788 251.278 292.787 250.945 292.86 250.624C294.333 244.021 294.24 237.157 292.59 230.597C292.485 230.165 292.51 229.712 292.662 229.295C292.814 228.877 293.085 228.516 293.441 228.256C301.395 222.446 307.659 222.614 312.059 228.758C312.257 229.038 312.389 229.361 312.444 229.702C313.619 236.881 313.684 244.203 312.637 251.403C312.564 251.934 312.304 252.421 311.905 252.773C311.506 253.124 310.995 253.317 310.467 253.316Z" fill="#E6E6E6"/>
<path d="M305.672 237.581H300.35C300.056 237.58 299.775 237.461 299.567 237.25C299.36 237.039 299.243 236.752 299.243 236.454C299.243 236.156 299.36 235.869 299.567 235.658C299.775 235.447 300.056 235.328 300.35 235.327H305.672C305.966 235.327 306.248 235.446 306.456 235.657C306.664 235.868 306.781 236.155 306.781 236.454C306.781 236.753 306.664 237.04 306.456 237.251C306.248 237.462 305.966 237.581 305.672 237.581Z" fill="white"/>
<path d="M305.672 241.533H300.35C300.056 241.533 299.775 241.414 299.567 241.202C299.36 240.991 299.243 240.705 299.243 240.406C299.243 240.108 299.36 239.822 299.567 239.61C299.775 239.399 300.056 239.28 300.35 239.279H305.672C305.966 239.279 306.248 239.398 306.456 239.609C306.664 239.821 306.781 240.107 306.781 240.406C306.781 240.705 306.664 240.992 306.456 241.203C306.248 241.415 305.966 241.533 305.672 241.533Z" fill="white"/>
<path d="M305.672 245.486H300.35C300.056 245.485 299.775 245.366 299.567 245.155C299.36 244.943 299.243 244.657 299.243 244.359C299.243 244.06 299.36 243.774 299.567 243.563C299.775 243.351 300.056 243.232 300.35 243.232H305.672C305.966 243.232 306.248 243.351 306.456 243.562C306.664 243.773 306.781 244.06 306.781 244.359C306.781 244.658 306.664 244.944 306.456 245.156C306.248 245.367 305.966 245.486 305.672 245.486Z" fill="white"/>
<path d="M369 349.412C369 349.489 368.985 349.566 368.956 349.637C368.927 349.709 368.885 349.774 368.831 349.828C368.777 349.883 368.713 349.926 368.643 349.956C368.573 349.985 368.497 350 368.421 350H0.57879C0.425286 350 0.278074 349.938 0.16953 349.828C0.060986 349.718 0 349.568 0 349.412C0 349.256 0.060986 349.107 0.16953 348.996C0.278074 348.886 0.425286 348.824 0.57879 348.824H368.421C368.497 348.824 368.573 348.839 368.643 348.868C368.713 348.898 368.777 348.941 368.831 348.996C368.885 349.051 368.927 349.115 368.956 349.187C368.985 349.258 369 349.335 369 349.412Z" fill="#CCCCCC"/>
<path d="M97.0338 313.416L96.0691 299.786C89.7494 296.577 82.754 294.983 75.6904 295.144C85.6279 302.946 84.832 318.541 91.7142 329.213C93.8858 332.525 96.7633 335.298 100.133 337.327C103.504 339.355 107.28 340.588 111.183 340.933L119.453 345.766C120.399 339.414 119.978 332.93 118.22 326.759C116.461 320.589 113.407 314.879 109.266 310.023C106.917 307.323 104.242 304.933 101.305 302.911C99.4976 308.183 97.0338 313.416 97.0338 313.416Z" fill="#F2F2F2"/>
<path d="M271.966 315.392L272.931 301.762C279.25 298.553 286.246 296.959 293.309 297.12C283.372 304.922 284.168 320.517 277.286 331.189C275.114 334.501 272.236 337.274 268.866 339.303C265.496 341.332 261.72 342.564 257.817 342.909L249.547 347.742C248.6 341.39 249.021 334.906 250.78 328.736C252.538 322.565 255.593 316.855 259.733 311.999C262.083 309.299 264.757 306.909 267.694 304.888C269.502 310.16 271.966 315.392 271.966 315.392Z" fill="#F2F2F2"/>
<path d="M180.123 161.578C185.226 161.578 189.364 157.376 189.364 152.192C189.364 147.007 185.226 142.805 180.123 142.805C175.019 142.805 170.881 147.007 170.881 152.192C170.881 157.376 175.019 161.578 180.123 161.578Z" fill="#6C63FF"/>
<path d="M184.867 148.279C184.728 148.145 184.543 148.07 184.351 148.07C184.159 148.07 183.974 148.145 183.835 148.279C181.874 149.868 180.113 151.695 178.591 153.72C178.217 152.986 177.844 152.252 177.47 151.517C177.039 150.67 175.779 151.418 176.21 152.265C176.757 153.339 177.303 154.414 177.85 155.488C177.916 155.597 178.008 155.688 178.118 155.751C178.229 155.814 178.353 155.847 178.48 155.847C178.606 155.847 178.73 155.814 178.841 155.751C178.951 155.688 179.044 155.597 179.11 155.488C180.731 153.167 182.67 151.093 184.867 149.327C185.002 149.188 185.079 149 185.079 148.803C185.079 148.607 185.002 148.419 184.867 148.279Z" fill="white"/>
<path d="M138.773 178.809L124.837 156.579L140.974 147.801L145.21 164.761L175.052 181.142C176.23 180.711 177.506 180.638 178.724 180.931C179.943 181.224 181.051 181.871 181.913 182.793C182.776 183.715 183.356 184.872 183.582 186.123C183.809 187.374 183.672 188.664 183.189 189.838C182.706 191.011 181.897 192.016 180.861 192.731C179.825 193.445 178.607 193.838 177.355 193.862C176.103 193.885 174.872 193.538 173.81 192.862C172.749 192.187 171.905 191.213 171.379 190.058L138.773 178.809Z" fill="#A0616A"/>
<path d="M114.656 129.917C110.278 136.447 125.838 160.183 125.838 160.183C126.596 158.524 133.842 177.162 135.056 176.061C138.505 172.932 143.905 164.215 146.907 163.827C148.623 163.605 142.926 151.239 142.926 151.239C142.926 151.239 140.322 143.938 136.788 134.61C135.838 131.955 134.241 129.586 132.147 127.726C130.052 125.866 127.529 124.574 124.811 123.971C124.811 123.971 119.035 123.387 114.656 129.917Z" fill="#3F3D56"/>
<path d="M114.87 342.671L121.488 342.67L124.637 316.74L114.869 316.741L114.87 342.671Z" fill="#A0616A"/>
<path d="M113.182 340.476L115.044 340.476L122.317 337.471L126.215 340.475H126.216C128.419 340.475 130.531 341.364 132.089 342.946C133.647 344.529 134.522 346.675 134.522 348.912V349.186L113.182 349.187L113.182 340.476Z" fill="#2F2E41"/>
<path d="M145.617 342.671L152.235 342.67L155.384 316.74L145.616 316.741L145.617 342.671Z" fill="#A0616A"/>
<path d="M143.929 340.476L145.792 340.476L153.064 337.471L156.962 340.475H156.963C159.166 340.475 161.278 341.364 162.836 342.946C164.394 344.529 165.269 346.675 165.269 348.912V349.186L143.929 349.187L143.929 340.476Z" fill="#2F2E41"/>
<path d="M148.482 200.909L105.434 202.002C97.2582 206.513 97.1341 216.276 99.8129 227.867C99.8129 227.867 98.9086 234.756 100.717 236.593C102.526 238.431 103.43 238.431 102.526 241.646C101.622 244.861 106.4 250.112 105.819 250.701C105.239 251.291 103.882 254.506 103.882 254.506L108.404 280.686C108.404 280.686 111.569 326.156 112.473 327.074C113.378 327.993 114.282 327.074 113.378 329.371C112.473 331.667 111.569 330.749 112.473 331.667C113.275 332.545 114.029 333.464 114.734 334.423H125.666C125.666 334.423 126.491 329.83 126.491 329.371C126.491 328.911 127.395 326.156 127.395 325.696C127.395 325.237 126.596 324.425 126.596 324.425C126.319 323.492 126.133 322.533 126.038 321.563C126.038 320.644 123.325 285.279 123.325 285.279L128.751 239.349L141.864 284.36C141.864 284.36 141.864 323.859 142.768 324.778C143.673 325.696 143.673 325.237 143.221 327.074C142.768 328.911 140.96 328.452 142.316 329.83C143.673 331.208 144.125 328.911 143.673 331.208L143.221 333.504L156.786 333.702C156.786 333.702 158.594 329.83 157.69 328.452C156.786 327.074 156.84 327.45 157.943 325.196C159.046 322.941 159.499 322.481 159.046 322.022C158.594 321.563 158.594 319.12 158.594 319.12L156.333 275.174C156.333 275.174 155.881 228.786 155.881 227.408C155.847 226.699 155.976 225.991 156.257 225.341V223.471L154.525 216.844L148.482 200.909Z" fill="#2F2E41"/>
<path d="M122.622 109.986C130.009 109.986 135.998 103.904 135.998 96.4003C135.998 88.8969 130.009 82.8141 122.622 82.8141C115.235 82.8141 109.247 88.8969 109.247 96.4003C109.247 103.904 115.235 109.986 122.622 109.986Z" fill="#A0616A"/>
<path d="M129.31 118.966C132.191 120.706 133.915 123.903 134.905 127.157C136.737 133.18 137.839 139.407 138.188 145.702L139.233 164.545L152.177 204.669C140.959 214.31 98.7927 206.86 98.7927 206.86C98.7927 206.86 97.4983 206.422 98.7927 205.107C100.087 203.792 101.347 204.957 100.053 203.642C98.7584 202.327 99.6507 203.792 100.082 202.477C100.514 201.163 100.082 202.039 99.6507 201.601C99.2193 201.162 102.991 197.218 102.991 197.218L99.5392 174.187L95.2246 127.731C100.402 121.157 110.815 117.282 110.815 117.282L113.505 112.363L126.958 113.456L129.31 118.966Z" fill="#3F3D56"/>
<path d="M133.648 89.1822C134.688 89.9698 135.458 91.0687 135.85 92.3243C136.001 90.2724 136.011 88.2124 135.879 86.1592C135.721 84.7164 134.721 84.3919 133.563 84.0158C132.518 83.6761 131.335 83.2923 131.017 81.8917C126.812 77.737 119.493 77.9465 114.485 79.3957C111.728 80.1932 110.142 81.2178 110.001 81.818L109.971 81.9416L109.859 81.9984C107.735 83.0774 107.321 86.4848 107.348 89.1531C107.4 94.1805 109.109 99.8902 110.072 100.354C110.123 100.379 110.136 100.369 110.158 100.35C111.607 99.1736 113.376 100.44 114.153 101.128C114.611 98.0035 116.087 95.1251 118.345 92.9525C120.603 90.78 123.512 89.4386 126.609 89.1427C127.62 89.0435 128.623 88.8726 129.611 88.6314C130.112 88.4997 130.627 88.4311 131.145 88.427C132.035 88.4132 132.909 88.6768 133.648 89.1822Z" fill="#2F2E41"/>
<path d="M216.68 211.735L242.409 185.196L249.188 163.97L238.279 159.488C232.875 165.025 227.313 181.974 227.313 181.974L209.752 205.915C209.612 205.968 209.472 206.024 209.334 206.09C208.526 206.478 207.829 207.071 207.312 207.812C206.795 208.553 206.475 209.417 206.383 210.32C206.291 211.224 206.43 212.136 206.786 212.969C207.142 213.802 207.704 214.527 208.417 215.075C209.13 215.623 209.971 215.975 210.857 216.097C211.743 216.218 212.645 216.106 213.475 215.77C214.306 215.434 215.037 214.886 215.599 214.18C216.16 213.473 216.533 212.631 216.68 211.735Z" fill="#FFB8B8"/>
<path d="M235.303 161.916L249.098 165.97L249.15 165.96C254.221 164.96 258.232 156.4 260.704 149.395C261.517 147.085 261.436 144.547 260.478 142.294C259.519 140.042 257.755 138.244 255.541 137.262C253.903 136.55 252.101 136.317 250.34 136.589C248.578 136.862 246.927 137.63 245.573 138.806L238.694 144.822L235.303 161.916Z" fill="#6C63FF"/>
<path d="M223.501 341.882L216.081 341.882L212.552 312.814L223.502 312.815L223.501 341.882Z" fill="#FFB8B8"/>
<path d="M225.393 339.422L223.305 339.422L215.152 336.054L210.782 339.421H210.782C208.312 339.421 205.944 340.418 204.198 342.191C202.452 343.965 201.471 346.371 201.471 348.879V349.186L225.393 349.187L225.393 339.422Z" fill="#2F2E41"/>
<path d="M256.42 341.882L249.001 341.882L245.472 312.814L256.421 312.815L256.42 341.882Z" fill="#FFB8B8"/>
<path d="M258.313 339.422L256.224 339.422L248.072 336.054L243.702 339.421H243.701C241.232 339.421 238.864 340.418 237.117 342.191C235.371 343.965 234.39 346.371 234.39 348.879V349.186L258.312 349.187L258.313 339.422Z" fill="#2F2E41"/>
<path d="M267.733 216.678C267.733 216.678 268.599 227.238 266.433 237.357C264.267 247.477 264.267 275.977 264.267 275.977L259.503 331.513L245.209 330.194L241.31 237.357L227.45 268.596L228.749 272.996L227.018 274.096C227.018 274.096 228.316 282.675 227.45 282.675C226.583 282.675 224.417 283.995 224.417 283.995L226.15 329.314L211.423 328.874L206.225 265.076L211.856 228.558L212.289 221.518L214.238 221.599L215.231 218.658L217.054 213.598L267.733 216.678Z" fill="#2F2E41"/>
<path d="M268.482 218.896L268.559 218.786C272.682 212.923 266.481 198.834 265.546 196.791L269.485 195.493L268.598 187.834L268.177 184.419L271.188 181.361L271.197 181.285L272.929 165.885L275.448 155.657C276.398 151.79 276.317 147.737 275.214 143.913C274.111 140.088 272.027 136.631 269.174 133.895L263.351 128.318L256.274 117.682H244.862L240.949 125.19C237.155 126.08 233.789 128.295 231.438 131.447C229.086 134.599 227.897 138.489 228.079 142.44L228.966 162.13L225.494 186.647L225.492 191.083L221.585 195.494L222.438 199.827L219.465 201.121L218.152 207.345C217.608 208.073 214.022 212.93 214.022 214.258C214.022 214.458 214.167 214.65 214.478 214.864C216.922 216.545 230.431 219.972 236.41 217.542C242.778 214.956 268.095 218.836 268.35 218.876L268.482 218.896Z" fill="#6C63FF"/>
<path d="M249.093 114.249C257.441 114.249 264.207 107.375 264.207 98.8964C264.207 90.4176 257.441 83.5441 249.093 83.5441C240.746 83.5441 233.979 90.4176 233.979 98.8964C233.979 107.375 240.746 114.249 249.093 114.249Z" fill="#FFB8B8"/>
<path d="M247.646 114.497C249.986 114.473 252.321 114.246 254.623 113.818C256.903 113.284 261.932 109.334 263.303 107C264.321 105.266 264.933 102.584 265.266 100.64C265.716 98.0663 265.63 95.4256 265.011 92.8884C264.393 90.3513 263.257 87.9743 261.677 85.9115C261.068 85.0473 260.24 84.3664 259.281 83.9408C259.196 83.9097 259.109 83.8824 259.021 83.8594C257.631 83.5267 256.371 82.7796 255.403 81.714C255.214 81.4983 255.011 81.2966 254.795 81.1106C253.708 80.2267 252.431 79.6166 251.067 79.3302C248.865 78.7929 245.714 79.4662 241.703 81.3331C239.688 82.2711 237.451 82.0094 235.727 81.6767C235.63 81.6603 235.531 81.67 235.439 81.7046C235.348 81.7393 235.266 81.7978 235.204 81.8743C234.492 82.589 233.54 83.0035 232.54 83.0346C231.928 83.078 231.307 83.9567 230.558 85.1009C230.389 85.3606 230.19 85.6638 230.047 85.8488L230.018 85.5014L229.681 85.8986C229.152 86.5229 228.787 87.2731 228.62 88.0793C228.453 88.8856 228.489 89.7217 228.726 90.5098C228.963 91.2978 229.392 92.0122 229.973 92.5864C230.555 93.1606 231.27 93.576 232.053 93.7938C232.673 93.9442 233.307 94.0298 233.945 94.0494C234.332 94.0745 234.732 94.1005 235.116 94.1579C236.35 94.381 237.505 94.9252 238.47 95.7374C239.435 96.5497 240.176 97.6021 240.621 98.7921C240.726 99.0671 240.892 99.3139 241.106 99.5135C241.319 99.713 241.576 99.86 241.854 99.9431C242.133 100.026 242.427 100.043 242.713 99.9924C242.999 99.9419 243.27 99.8252 243.504 99.6515C243.895 99.3259 244.357 99.1012 244.851 98.9963C245.345 98.8914 245.857 98.9095 246.343 99.0491C246.766 99.2735 247.1 99.6386 247.289 100.083C247.517 100.578 247.886 100.993 248.347 101.274C249.921 102.047 250.119 105.647 249.638 108.665C249.174 111.574 248.164 113.696 247.183 113.825C246.428 113.925 246.342 113.982 246.291 114.119L246.245 114.242L246.333 114.354C246.755 114.497 247.203 114.546 247.646 114.497Z" fill="#2F2E41"/>
<path d="M235.106 163.558L227.842 154.155C220.442 156.225 207.311 168.113 207.311 168.113L180.346 180C179.446 179.846 178.522 179.936 177.667 180.261C176.812 180.585 176.056 181.133 175.476 181.848C174.895 182.563 174.51 183.421 174.36 184.336C174.21 185.25 174.3 186.189 174.62 187.057C174.941 187.925 175.48 188.692 176.185 189.28C176.89 189.869 177.736 190.259 178.636 190.41C179.536 190.562 180.46 190.469 181.314 190.143C182.169 189.816 182.923 189.267 183.502 188.55L218.826 178.54L235.106 163.558Z" fill="#FFB8B8"/>
<path d="M233.365 165.708L244.828 152.728L245.465 143.531C245.583 141.725 245.202 139.921 244.364 138.323C243.526 136.726 242.266 135.398 240.724 134.49C238.626 133.274 236.152 132.912 233.801 133.478C231.451 134.044 229.4 135.496 228.062 137.539C224.012 143.74 219.655 152.123 221.897 156.85L221.92 156.898L233.365 165.708Z" fill="#6C63FF"/>
<path d="M127.713 214.495L97.9199 198.996C95.8007 197.893 95.0988 194.969 96.3551 192.477L115.781 153.95C117.037 151.458 119.783 150.328 121.902 151.43L151.695 166.929C153.814 168.031 154.516 170.956 153.26 173.447L133.834 211.975C132.578 214.467 129.832 215.597 127.713 214.495Z" fill="#E6E6E6"/>
<path d="M122.622 207.37L102.381 196.84C100.396 195.807 99.7385 193.068 100.915 190.735L117.054 158.727C118.23 156.393 120.802 155.335 122.787 156.367L147.235 169.085C149.219 170.118 149.877 172.856 148.7 175.19L139.933 192.578C134.692 202.973 131.463 211.969 122.622 207.37Z" fill="white"/>
<path d="M132.63 189.89L114.702 180.563C114.482 180.405 114.327 180.171 114.263 179.905C114.199 179.64 114.232 179.36 114.354 179.116C114.477 178.873 114.682 178.683 114.931 178.58C115.181 178.477 115.458 178.469 115.713 178.557L133.642 187.884C133.861 188.043 134.017 188.276 134.08 188.542C134.144 188.807 134.112 189.087 133.989 189.331C133.866 189.574 133.661 189.765 133.412 189.867C133.163 189.97 132.885 189.978 132.63 189.89Z" fill="#6C63FF"/>
<path d="M116.795 186.655L112.703 184.527C112.484 184.368 112.328 184.135 112.264 183.869C112.201 183.603 112.233 183.323 112.356 183.08C112.478 182.836 112.683 182.646 112.933 182.543C113.182 182.441 113.46 182.433 113.715 182.521L117.806 184.649C118.025 184.808 118.181 185.041 118.245 185.307C118.308 185.572 118.276 185.852 118.153 186.096C118.031 186.339 117.826 186.53 117.576 186.632C117.327 186.735 117.049 186.743 116.795 186.655Z" fill="#6C63FF"/>
<path d="M122.043 194.388L110.705 188.49C110.486 188.331 110.33 188.098 110.266 187.832C110.203 187.567 110.235 187.287 110.358 187.043C110.48 186.8 110.685 186.609 110.935 186.507C111.184 186.404 111.462 186.396 111.716 186.484L123.054 192.382C123.274 192.541 123.429 192.774 123.493 193.04C123.557 193.306 123.525 193.586 123.402 193.829C123.279 194.072 123.074 194.263 122.825 194.366C122.575 194.468 122.298 194.476 122.043 194.388Z" fill="#6C63FF"/>
<path d="M139.725 175.819L121.796 166.492C121.577 166.333 121.421 166.1 121.358 165.834C121.294 165.568 121.326 165.288 121.449 165.045C121.572 164.802 121.776 164.611 122.026 164.509C122.275 164.406 122.553 164.398 122.808 164.486L140.736 173.813C140.956 173.971 141.111 174.205 141.175 174.47C141.239 174.736 141.206 175.016 141.084 175.259C140.961 175.503 140.756 175.693 140.507 175.796C140.257 175.898 139.98 175.907 139.725 175.819Z" fill="#6C63FF"/>
<path d="M123.889 172.584L119.798 170.455C119.579 170.297 119.423 170.063 119.359 169.797C119.295 169.532 119.328 169.252 119.45 169.008C119.573 168.765 119.778 168.575 120.027 168.472C120.277 168.369 120.554 168.361 120.809 168.449L124.901 170.578C125.12 170.736 125.276 170.97 125.339 171.235C125.403 171.501 125.371 171.781 125.248 172.024C125.125 172.268 124.921 172.458 124.671 172.561C124.422 172.664 124.144 172.672 123.889 172.584Z" fill="#6C63FF"/>
<path d="M129.138 180.317L117.8 174.419C117.58 174.26 117.425 174.027 117.361 173.761C117.297 173.495 117.33 173.215 117.452 172.972C117.575 172.728 117.78 172.538 118.029 172.435C118.279 172.333 118.556 172.325 118.811 172.413L130.149 178.311C130.368 178.469 130.524 178.703 130.588 178.969C130.652 179.234 130.619 179.514 130.497 179.758C130.374 180.001 130.169 180.191 129.92 180.294C129.67 180.397 129.393 180.405 129.138 180.317Z" fill="#6C63FF"/>
<path d="M103.025 180.953L96.2939 155.501L114.28 152.042L113.313 169.512L136.945 194.229C138.196 194.177 139.435 194.496 140.51 195.147C141.586 195.798 142.452 196.753 143.003 197.895C143.554 199.037 143.765 200.318 143.612 201.58C143.459 202.842 142.947 204.032 142.14 205.004C141.333 205.976 140.264 206.689 139.065 207.055C137.866 207.421 136.588 207.425 135.387 207.065C134.185 206.706 133.113 206 132.3 205.033C131.487 204.065 130.969 202.878 130.809 201.617L103.025 180.953Z" fill="#A0616A"/>
<path d="M94.4534 126.964C88.3483 131.859 96.1842 159.244 96.1842 159.244C97.3974 157.891 98.8072 177.879 100.29 177.198C104.505 175.264 112.229 168.594 115.207 169.138C116.91 169.448 115.126 155.917 115.126 155.917C115.126 155.917 114.798 148.158 114.181 138.184C114.058 135.36 113.234 132.615 111.786 130.202C110.337 127.789 108.311 125.788 105.896 124.385C105.896 124.385 100.558 122.068 94.4534 126.964Z" fill="#3F3D56"/>
<path d="M196.036 237.445L179.779 229.647C179.431 229.481 179.125 229.238 178.883 228.934C178.641 228.631 178.47 228.276 178.383 227.896C178.295 227.525 178.291 227.138 178.371 226.764C178.451 226.391 178.613 226.04 178.846 225.74C183.555 219.626 186.789 212.477 188.288 204.865C188.401 204.282 188.71 203.757 189.161 203.379C189.613 203.002 190.18 202.795 190.765 202.794C199.056 202.823 205.253 205.898 209.183 211.934C209.39 212.248 209.527 212.604 209.585 212.977C209.643 213.351 209.62 213.732 209.518 214.096C207.242 222.062 203.78 229.627 199.251 236.529C198.915 237.05 198.404 237.431 197.813 237.599C197.222 237.768 196.591 237.713 196.036 237.445Z" fill="#E6E6E6"/>
<path d="M200.819 226.508L188.388 220.545C188.079 220.397 187.84 220.13 187.725 219.803C187.609 219.476 187.626 219.116 187.772 218.802C187.918 218.487 188.181 218.245 188.503 218.128C188.825 218.011 189.18 218.028 189.489 218.176L201.92 224.139C202.073 224.212 202.21 224.316 202.324 224.443C202.438 224.571 202.526 224.719 202.583 224.881C202.64 225.043 202.666 225.215 202.657 225.387C202.649 225.559 202.608 225.727 202.535 225.883C202.463 226.038 202.361 226.178 202.236 226.293C202.111 226.409 201.964 226.498 201.805 226.556C201.645 226.615 201.476 226.64 201.307 226.632C201.138 226.623 200.972 226.581 200.819 226.508Z" fill="white"/>
<path d="M202.75 222.354L190.319 216.391C190.01 216.243 189.771 215.976 189.656 215.649C189.54 215.322 189.558 214.962 189.704 214.648C189.85 214.333 190.112 214.091 190.434 213.974C190.756 213.857 191.111 213.874 191.42 214.022L203.851 219.985C204.16 220.133 204.399 220.4 204.514 220.727C204.63 221.054 204.613 221.415 204.467 221.729C204.321 222.043 204.058 222.285 203.736 222.403C203.414 222.52 203.059 222.502 202.75 222.354Z" fill="white"/>
<path d="M186.14 91.9538L184.983 92.0826C179.823 71.4885 169.823 57.2212 156.062 50.8227C138.568 42.6891 116.936 48.151 95.1509 66.2024C73.255 84.346 53.8713 113.005 40.571 146.901L39.4482 146.379C52.8069 112.335 72.2901 83.5375 94.3087 65.2931C116.438 46.9565 138.511 41.4545 156.463 49.8011C170.619 56.3829 180.881 70.9591 186.14 91.9538Z" fill="#F2F2F2"/>
<path d="M58.4781 118.775C55.4521 125.25 52.5738 131.959 49.9231 138.714C34.6701 177.586 26.9405 217.286 27.5722 253.522L26.38 253.393C25.7478 217.022 33.4996 177.186 48.8004 138.192C51.4586 131.418 54.3451 124.69 57.3799 118.197L58.4781 118.775Z" fill="#F2F2F2"/>
<path d="M57.9059 145.485C54.8798 151.96 52.0015 158.669 49.3509 165.424C34.0978 204.296 26.3682 243.996 26.9999 280.232L25.8078 280.103C25.1755 243.732 32.9273 203.896 48.2281 164.902C50.8864 158.128 53.7728 151.4 56.8076 144.907L57.9059 145.485Z" fill="#F2F2F2"/>
<path d="M25.8653 155.199C27.1831 153.187 26.4031 150.307 24.1231 148.766C21.8431 147.225 18.9266 147.607 17.6088 149.619C16.291 151.631 17.0709 154.511 19.3509 156.052C21.6309 157.593 24.5475 157.211 25.8653 155.199Z" fill="#CCCCCC"/>
<path d="M306.477 227.858C307.794 225.846 307.014 222.966 304.734 221.425C302.454 219.884 299.538 220.266 298.22 222.278C296.902 224.29 297.682 227.17 299.962 228.711C302.242 230.252 305.159 229.87 306.477 227.858Z" fill="#CCCCCC"/>
</g>
<defs>
<clipPath id="clip0_4022_1991">
<rect width="369" height="304" fill="white" transform="translate(0 46)"/>
</clipPath>
</defs>
</svg>
