<svg width="47" height="48" viewBox="0 0 47 48" fill="none" xmlns="http://www.w3.org/2000/svg">
<g clip-path="url(#clip0_4014_10394)">
<path d="M28.2854 13.9043C28.5902 13.7834 28.773 13.6624 28.9559 13.6624C30.6628 13.4811 32.3697 13.2997 34.0765 13.1184C34.6252 13.0579 35.1129 13.0579 35.6615 13.0579C35.9663 13.0579 36.0882 12.937 36.2101 12.6952C37.6732 9.79343 40.6602 8.64482 43.6472 9.91434C45.1712 10.5793 46.2075 11.7279 46.7562 13.3602C47.4267 15.5365 46.8781 17.471 45.2931 19.0428C43.7082 20.6146 41.7575 20.9773 39.6848 20.3728C37.1245 19.5869 35.6005 17.1687 35.8444 14.4483C35.8444 14.267 35.8444 14.0856 35.8444 13.9043C34.6252 13.6624 30.0532 14.0856 28.773 14.5693C29.1388 15.7783 28.895 16.9269 27.9806 17.8942C27.4929 18.4383 26.8223 18.7405 26.0908 18.8614C24.6887 19.1033 23.1038 18.1965 22.5551 16.8665C21.9455 15.4156 22.4332 13.8438 23.7743 12.937C24.5668 12.3929 25.4202 12.2116 26.3956 12.4534C27.1271 12.6952 27.7977 13.2393 28.2854 13.9043Z" fill="#2C3792"/>
<path d="M11.4605 34.398C13.777 34.1562 15.9715 33.9144 18.1661 33.6725C18.1661 33.1889 18.1661 32.8262 18.1661 32.5239C18.1661 31.2544 18.9586 30.0453 20.1168 29.5617C21.4579 29.0176 22.799 29.2594 23.7744 30.2267C24.7497 31.194 25.1765 32.8262 24.323 34.2166C23.5915 35.4257 22.0066 36.1511 20.6045 35.6675C19.9949 35.4861 19.4462 35.0025 18.9586 34.5793C18.7147 34.398 18.5928 34.2771 18.288 34.3375C16.3373 34.5793 14.3866 34.8816 12.3749 35.0025C11.5824 35.063 11.2167 35.3048 10.8509 36.0302C9.14404 39.4156 4.63302 40.0202 1.88983 37.3602C0.853509 36.3325 0.243911 35.1234 0.182951 33.733C0.121992 30.3476 2.6823 27.9899 5.66933 27.869C8.71732 27.7481 11.2167 30.1058 11.4605 32.8262C11.5215 33.2494 11.4605 33.733 11.4605 34.398Z" fill="#2C3792"/>
<path d="M35.4787 23.2746C37.2465 24.4232 38.8315 25.7531 40.1116 27.4458C40.3555 27.7481 40.5993 27.869 40.9041 27.8086C42.4891 27.6877 43.9521 28.1713 45.1103 29.2594C47.183 31.194 47.7316 34.2771 45.7809 36.7557C45.2323 37.4811 44.5007 38.2065 43.7083 38.5088C42.6719 38.9924 41.4527 39.1738 40.2335 38.932C36.8198 38.2065 34.8081 34.7003 36.0883 31.4358C36.6369 29.9849 37.6732 28.8967 39.1363 28.2922C39.2582 28.2317 39.4411 28.1713 39.6849 28.0504C38.4048 26.3577 36.8198 25.0277 35.052 23.8186C34.1985 24.6045 33.2232 25.0277 32.004 24.7859C31.2115 24.665 30.6019 24.2418 30.1142 23.6977C29.0169 22.4282 29.0779 20.7355 30.1142 19.5264C31.3334 18.0756 33.1013 18.136 34.0766 18.6801C35.8444 19.7078 36.2712 21.0378 35.4787 23.2746Z" fill="#2C3792"/>
<path d="M17.5566 15.2342C18.5319 15.6574 19.2634 16.3224 19.6292 17.3501C20.1169 18.801 19.4463 20.4937 18.0443 21.2191C16.5812 22.005 14.8134 21.6423 13.838 20.3728C13.0455 19.3451 12.8627 18.1965 13.4113 16.9874C13.9599 15.8388 14.9353 15.1133 16.2764 15.0529C16.5812 15.0529 16.7031 14.932 16.7641 14.6297C17.1299 12.8161 17.7395 11.1234 18.7148 9.49116C18.7758 9.37026 18.7758 9.06799 18.6538 8.94708C16.947 6.77076 17.0079 3.80854 18.7758 1.81358C20.6046 -0.241835 23.5916 -0.785915 25.969 0.664966C28.0417 1.93449 29.1999 4.35262 28.4684 6.95212C27.7978 9.3098 25.6033 11.0025 23.1649 11.063C21.9457 11.063 20.8484 10.7607 19.8121 10.0957C19.5073 9.91434 19.3244 9.85388 19.1415 10.2166C18.3491 11.7279 17.8004 13.2997 17.4956 14.932C17.5566 15.1133 17.5566 15.1738 17.5566 15.2342Z" fill="#2C3792"/>
<path d="M23.9574 36.8765C24.9327 36.8161 25.8471 37.1184 26.7615 37.602C27.0663 37.7833 27.1882 37.7229 27.4321 37.4811C28.5293 36.4534 29.1999 35.1838 29.6876 33.733C29.8095 33.3098 29.7485 33.1284 29.3218 32.9471C27.7978 32.2216 27.0663 30.5894 27.554 29.0176C28.0417 27.4458 29.5657 26.4786 31.2116 26.7204C32.7356 26.9622 34.0767 28.4735 34.0157 30.0453C33.9548 31.6776 32.7356 33.068 31.1506 33.2493C30.7239 33.3098 30.541 33.4307 30.4801 33.8539C30.1143 35.3048 29.3828 36.5743 28.3465 37.6624C28.2245 37.7833 28.1636 37.9043 28.0417 38.0252C27.7978 38.267 27.8588 38.4483 28.1026 38.6901C30.0533 40.7456 30.0533 44.0705 28.1636 46.1259C26.2129 48.3022 22.8601 48.665 20.6046 46.9723C19.0196 45.7632 18.1662 44.1914 18.2881 42.1964C18.41 39.0529 20.9094 36.8161 23.9574 36.8765Z" fill="#2C3792"/>
<path d="M14.3866 30.0453C12.253 29.9848 10.5461 27.8085 11.1557 25.8136C11.2776 25.3904 11.1557 25.1486 10.8509 24.7859C9.69267 23.6372 8.59539 22.3677 7.49812 21.2191C7.3762 21.0982 7.13236 21.0377 6.94948 21.0377C4.75493 21.5818 2.92613 20.9168 1.34118 19.345C-0.487617 17.4105 -0.548577 13.9647 1.28022 12.0302C2.13365 11.1234 3.04805 10.4584 4.32821 10.2166C6.40084 9.79341 8.10771 10.4584 9.26595 11.4257C11.0338 12.9974 11.6434 14.9924 10.9728 17.2292C10.6071 18.6196 9.69267 19.6473 8.47347 20.3728C8.04675 20.6146 8.04675 20.7959 8.35155 21.1587C9.32691 22.1864 10.3023 23.2141 11.2776 24.2418C11.5215 24.544 11.7043 24.544 12.0701 24.3022C13.4112 23.1536 14.8743 22.9723 16.1544 23.9395C18.227 25.4508 18.1051 27.9294 16.1544 29.3803C15.7277 29.8035 14.9962 29.8639 14.3866 30.0453Z" fill="#2C3792"/>
<path d="M44.5618 21.5214C45.9029 21.5214 46.9392 22.5491 46.9392 23.879C46.9392 25.209 45.9029 26.2367 44.5618 26.2972C43.2816 26.2972 42.1843 25.2695 42.1843 23.9395C42.1843 22.5491 43.2206 21.5214 44.5618 21.5214Z" fill="#2C3792"/>
<path d="M13.1064 43.8891C11.7653 43.8891 10.729 42.9219 10.729 41.5314C10.729 40.2015 11.7653 39.1738 13.1064 39.1738C14.4476 39.1738 15.4839 40.2015 15.4839 41.5314C15.5448 42.8614 14.4476 43.8891 13.1064 43.8891Z" fill="#2C3792"/>
<path d="M34.1374 43.8891C32.7963 43.8891 31.76 42.8614 31.76 41.5314C31.76 40.2015 32.8573 39.1738 34.1374 39.1738C35.4786 39.1738 36.5149 40.2015 36.5149 41.5919C36.5149 42.9219 35.4786 43.8891 34.1374 43.8891Z" fill="#2C3792"/>
<path d="M12.1921 5.4408C13.5332 5.4408 14.5696 6.4685 14.5696 7.79848C14.5696 9.068 13.4723 10.1562 12.1921 10.1562C10.912 10.1562 9.8147 9.068 9.8147 7.79848C9.87566 6.40805 10.851 5.4408 12.1921 5.4408Z" fill="#2C3792"/>
<path d="M36.5759 6.83122C36.5759 8.10074 35.5396 9.12845 34.1985 9.12845C32.8574 9.12845 31.821 8.10074 31.821 6.77077C31.821 5.44079 32.9183 4.41309 34.1985 4.41309C35.6006 4.47354 36.5759 5.50125 36.5759 6.83122Z" fill="#2C3792"/>
<path d="M4.93773 24.6045C4.93773 25.9345 3.90141 26.9622 2.56029 26.9622C1.21918 26.9622 0.182861 25.9345 0.182861 24.5441C0.182861 23.2746 1.28014 22.2468 2.56029 22.2468C3.90141 22.1864 4.93773 23.2746 4.93773 24.6045Z" fill="#2C3792"/>
</g>
<defs>
<clipPath id="clip0_4014_10394">
<rect width="47" height="48" fill="white"/>
</clipPath>
</defs>
</svg>
