<svg width="369" height="322" viewBox="0 0 369 322" fill="none" xmlns="http://www.w3.org/2000/svg">
<g clip-path="url(#clip0_4023_995)">
<path d="M172.688 316.549C172.82 316.555 172.95 316.52 173.061 316.449C173.173 316.379 173.26 316.276 173.311 316.154C173.361 316.032 173.374 315.898 173.346 315.769C173.318 315.64 173.251 315.523 173.154 315.433L173.11 315.258L173.127 315.216C173.26 314.902 173.482 314.635 173.766 314.447C174.05 314.259 174.383 314.16 174.723 314.161C175.064 314.162 175.396 314.264 175.678 314.454C175.961 314.644 176.181 314.913 176.311 315.228C176.832 316.483 177.495 317.741 177.659 319.069C177.73 319.656 177.7 320.251 177.569 320.828C178.792 318.156 179.427 315.253 179.431 312.314C179.432 311.576 179.391 310.839 179.309 310.106C179.241 309.506 179.147 308.909 179.027 308.317C178.371 305.103 176.964 302.091 174.92 299.528C173.931 298.987 173.13 298.156 172.627 297.147C172.445 296.784 172.316 296.396 172.245 295.996C172.462 295.424 172.576 294.817 172.582 294.205C172.737 293.968 173.016 293.851 173.185 293.62C174.03 292.474 175.194 292.674 175.802 294.232C177.1 294.888 177.112 295.976 176.316 297.022C175.809 297.688 175.739 298.588 175.295 299.301C175.341 299.359 175.388 299.416 175.434 299.475C176.27 300.551 176.999 301.707 177.61 302.926C177.461 301.56 177.638 300.179 178.127 298.896C178.622 297.7 179.55 296.693 180.368 295.659C180.584 295.381 180.877 295.173 181.211 295.063C181.545 294.952 181.904 294.943 182.243 295.036C182.582 295.13 182.886 295.322 183.116 295.588C183.346 295.855 183.492 296.184 183.535 296.533L183.54 296.579C183.419 296.647 183.3 296.72 183.184 296.797C183.038 296.895 182.925 297.034 182.859 297.198C182.794 297.361 182.779 297.54 182.817 297.712C182.855 297.883 182.944 298.04 183.072 298.16C183.2 298.28 183.362 298.359 183.535 298.386L183.553 298.388C183.51 298.827 183.433 299.261 183.324 299.687C184.373 303.747 182.109 305.226 178.877 305.292C178.806 305.329 178.736 305.366 178.665 305.401C179.279 307.142 179.663 308.956 179.81 310.797C179.893 311.883 179.888 312.974 179.795 314.059L179.801 314.021C180.035 312.814 180.678 311.725 181.621 310.938C183.022 309.786 185.001 309.362 186.512 308.435C186.673 308.332 186.86 308.277 187.051 308.277C187.242 308.276 187.429 308.33 187.59 308.433C187.751 308.535 187.879 308.682 187.96 308.855C188.041 309.028 188.07 309.221 188.045 309.41L188.039 309.451C187.814 309.542 187.594 309.648 187.382 309.767C187.261 309.836 187.142 309.909 187.026 309.986C186.88 310.084 186.766 310.223 186.701 310.386C186.636 310.55 186.621 310.729 186.659 310.901C186.697 311.072 186.786 311.228 186.914 311.349C187.042 311.469 187.204 311.548 187.377 311.575L187.395 311.577L187.432 311.583C187.047 312.503 186.506 313.35 185.835 314.087C185.179 317.631 182.363 317.967 179.351 316.935H179.349C179.018 318.373 178.54 319.773 177.92 321.112H172.816C172.798 321.055 172.781 320.996 172.765 320.939C173.237 320.969 173.711 320.941 174.177 320.855C173.798 320.39 173.42 319.921 173.041 319.456C173.032 319.447 173.025 319.438 173.017 319.428C172.825 319.19 172.631 318.954 172.439 318.716C172.429 317.986 172.513 317.257 172.688 316.549Z" fill="#F2F2F2"/>
<path d="M45.5116 316.549C45.3799 316.555 45.2496 316.52 45.1382 316.449C45.0269 316.379 44.9399 316.276 44.889 316.154C44.8382 316.032 44.8259 315.898 44.854 315.769C44.882 315.64 44.9489 315.523 45.0457 315.433L45.0897 315.258L45.0723 315.216C44.9396 314.902 44.7174 314.635 44.4334 314.447C44.1495 314.259 43.8165 314.16 43.4762 314.161C43.136 314.162 42.8038 314.264 42.5212 314.454C42.2387 314.644 42.0184 314.913 41.8881 315.228C41.3673 316.483 40.7043 317.741 40.541 319.069C40.4691 319.656 40.4995 320.251 40.6307 320.828C39.4075 318.156 38.7724 315.253 38.7683 312.314C38.768 311.576 38.8089 310.839 38.8909 310.106C38.9586 309.506 39.0525 308.909 39.1726 308.317C39.8282 305.103 41.2358 302.091 43.2798 299.528C44.2691 298.987 45.0691 298.156 45.5721 297.147C45.7543 296.784 45.8831 296.396 45.9545 295.996C45.7377 295.424 45.6237 294.817 45.6179 294.205C45.4623 293.968 45.184 293.851 45.0141 293.62C44.1694 292.474 43.0055 292.674 42.398 294.232C41.1 294.888 41.0875 295.976 41.8839 297.022C42.3906 297.688 42.4602 298.588 42.9047 299.301C42.859 299.359 42.8114 299.416 42.7657 299.475C41.9296 300.551 41.2009 301.707 40.59 302.926C40.7386 301.56 40.5613 300.179 40.0727 298.896C39.5775 297.7 38.6494 296.693 37.8321 295.659C37.6159 295.381 37.3223 295.173 36.9885 295.063C36.6546 294.952 36.2955 294.943 35.9564 295.036C35.6174 295.13 35.3136 295.322 35.0836 295.588C34.8536 295.855 34.7076 296.184 34.6642 296.533L34.6593 296.579C34.7807 296.647 34.8995 296.72 35.0158 296.797C35.1618 296.895 35.275 297.034 35.3405 297.198C35.4059 297.361 35.4206 297.54 35.3826 297.712C35.3446 297.883 35.2557 298.04 35.1275 298.16C34.9993 298.28 34.8379 298.359 34.6642 298.386L34.6465 298.388C34.6897 298.827 34.7662 299.261 34.8751 299.687C33.8266 303.747 36.0903 305.226 39.3226 305.292C39.3939 305.329 39.4635 305.366 39.5348 305.401C38.9211 307.142 38.5361 308.956 38.3896 310.797C38.3066 311.883 38.3115 312.974 38.4042 314.059L38.3987 314.021C38.1645 312.814 37.5216 311.725 36.5784 310.938C35.1775 309.786 33.1984 309.362 31.6871 308.435C31.5265 308.332 31.3398 308.277 31.1489 308.277C30.9581 308.276 30.771 308.33 30.6099 308.433C30.4488 308.535 30.3203 308.682 30.2396 308.855C30.1589 309.028 30.1294 309.221 30.1544 309.41L30.1606 309.451C30.3859 309.542 30.6052 309.648 30.8174 309.767C30.9388 309.836 31.0576 309.909 31.1739 309.986C31.32 310.084 31.4331 310.223 31.4986 310.386C31.5641 310.55 31.5787 310.729 31.5407 310.901C31.5028 311.072 31.4138 311.228 31.2856 311.349C31.1575 311.469 30.996 311.548 30.8224 311.575L30.8046 311.577L30.768 311.583C31.1529 312.503 31.6932 313.35 32.3651 314.087C33.0207 317.631 35.8366 317.967 38.8488 316.935H38.8506C39.1811 318.373 39.66 319.773 40.2795 321.112H45.3837C45.402 321.055 45.4185 320.996 45.435 320.939C44.9625 320.969 44.4882 320.941 44.0226 320.855C44.4013 320.39 44.78 319.921 45.1587 319.456C45.1671 319.447 45.1751 319.438 45.1825 319.428C45.3746 319.19 45.5685 318.954 45.7606 318.716C45.7708 317.986 45.687 317.257 45.5116 316.549Z" fill="#F2F2F2"/>
<path d="M122.654 41.9405C123.687 39.8587 125.337 38.1304 126.347 36.0373C127.356 33.9442 127.553 31.1428 125.871 29.5407C124.443 28.1804 122.205 28.1614 120.498 27.176C116.146 24.6658 116.151 16.6926 111.177 16.0036C108.758 15.6686 106.569 17.485 105.107 19.4433C103.645 21.4017 102.48 23.6869 100.452 25.0494C98.157 26.5918 95.1895 26.6589 92.6406 27.7302C87.7537 29.7842 85.1916 35.0659 83.0493 39.9199C81.6692 43.0468 80.2576 46.4194 80.8979 49.7774C79.506 50.6445 80.1264 52.9767 81.5157 53.8479C82.905 54.719 84.6497 54.6996 86.245 55.077C89.5979 55.87 92.3434 58.5424 93.6449 61.7363C94.6593 64.2257 94.8668 66.9589 95.0625 69.6404C95.4021 74.2932 95.7417 78.9461 96.0813 83.5989C96.2325 85.669 96.4307 87.8689 97.6891 89.5182C98.9475 91.1676 101.673 91.8588 103.087 90.3416C104.439 88.8917 103.83 86.5962 103.803 84.6128C103.776 82.6295 105.566 80.1597 107.255 81.1973L107.85 79.8446C111.707 78.4619 115.084 75.9959 117.577 72.7415C120.07 69.4871 121.574 65.5823 121.908 61.4944C122.339 54.9101 119.722 47.8502 122.654 41.9405Z" fill="#E6E6E6"/>
<path d="M126.595 83.6929C126.967 83.3414 127.232 82.8905 127.357 82.3935C127.482 81.8965 127.462 81.374 127.3 80.8878C127.138 80.4015 126.841 79.9718 126.443 79.6492C126.046 79.3266 125.564 79.1247 125.055 79.0671L125.062 79.2906C124.336 79.715 123.508 79.9328 122.668 79.9206C121.83 79.9074 120.997 80.0396 120.204 80.3113C119.81 80.4547 119.469 80.7142 119.225 81.0556C118.981 81.3971 118.846 81.8044 118.838 82.224C118.884 82.5457 119.007 82.8514 119.196 83.1154C119.386 83.3793 119.636 83.5936 119.925 83.7401C120.507 84.027 121.132 84.2169 121.774 84.3023C123.43 84.6142 125.369 84.8503 126.595 83.6929Z" fill="#E6E6E6"/>
<path d="M158.892 42.0508C159.585 41.5784 160.174 40.9678 160.621 40.2572C160.838 39.8977 160.941 39.4809 160.917 39.0616C160.893 38.6423 160.743 38.2401 160.486 37.9078C159.964 37.4541 159.292 37.2111 158.601 37.2258C156.724 37.0855 154.837 37.3082 153.044 37.8819C154.885 39.515 156.727 41.1481 158.568 42.7813L158.892 42.0508Z" fill="#E6E6E6"/>
<path d="M149.684 46.2982C150.429 47.1206 150.191 48.3962 149.981 49.4857C149.77 50.5752 149.743 51.9366 150.679 52.5309C151.49 53.0461 152.629 52.6257 153.222 51.8693C153.753 51.0626 154.076 50.1371 154.163 49.1752C154.454 47.7772 154.586 46.3505 154.556 44.9227C154.52 43.4842 154.014 42.0972 153.113 40.9756C152.474 40.2462 151.623 39.7354 150.68 39.5146C149.736 39.2939 148.747 39.3744 147.851 39.7448L148.707 39.7026C148.085 40.502 147.613 41.4079 147.315 42.3762C147.172 42.8626 147.162 43.3784 147.286 43.8701C147.41 44.3618 147.663 44.8113 148.018 45.1721C148.526 45.6142 149.233 45.7991 149.684 46.2982Z" fill="#E6E6E6"/>
<path d="M191.653 32.5057L191.805 32.0368C191.169 32.4052 190.679 32.9812 190.416 33.6683C190.153 34.3555 190.135 35.112 190.363 35.8114C190.852 35.4251 191.229 34.9151 191.456 34.334C191.683 33.753 191.751 33.1219 191.653 32.5057Z" fill="#E6E6E6"/>
<path d="M183.385 39.2177C184.195 38.7586 184.886 38.1158 185.403 37.3409C185.92 36.5661 186.249 35.6807 186.363 34.7558C186.45 34.1808 186.384 33.5927 186.17 33.0518C186.06 32.7833 185.886 32.5461 185.662 32.3613C185.439 32.1765 185.173 32.0499 184.889 31.9927L184.543 32.5386C184.046 32.1106 183.212 32.5508 183.003 33.1728C182.868 33.8186 182.924 34.4898 183.164 35.1042C183.403 35.7224 183.392 36.4098 183.133 37.02C182.854 37.3789 182.54 37.7093 182.196 38.0062C182.028 38.1594 181.918 38.3665 181.885 38.5919C181.853 38.8172 181.899 39.047 182.017 39.2418C182.343 39.6146 182.953 39.4582 183.385 39.2177Z" fill="#E6E6E6"/>
<path d="M179.861 36.1683C180.157 35.634 180.297 35.0269 180.264 34.4166L179.507 34.1787C179.022 34.3753 178.593 34.6863 178.255 35.0851C178.152 35.1882 178.074 35.3127 178.025 35.4497C177.976 35.5868 177.958 35.7329 177.972 35.8778C177.986 36.0226 178.032 36.1626 178.106 36.2876C178.181 36.4126 178.282 36.5196 178.402 36.6009C178.523 36.6822 178.66 36.7358 178.804 36.7579C178.947 36.78 179.094 36.77 179.233 36.7287C179.373 36.6874 179.501 36.6157 179.61 36.5188C179.718 36.4219 179.804 36.3022 179.861 36.1683Z" fill="#E6E6E6"/>
<path d="M216.886 32.3299C216.955 32.3873 217.023 32.4464 217.091 32.5043C217.152 32.4916 217.209 32.4689 217.271 32.4613L216.886 32.3299Z" fill="#E6E6E6"/>
<path d="M215.672 38.9863C216.368 38.423 217.063 37.8597 217.758 37.2964C218.128 37.0346 218.443 36.7031 218.686 36.3206C218.851 35.9584 218.923 35.5601 218.894 35.1628C218.864 34.7654 218.735 34.382 218.518 34.0483C218.133 33.4566 217.65 32.9346 217.091 32.5043C216.477 32.6499 215.937 33.0159 215.575 33.5331C215.212 34.0503 215.051 34.6828 215.123 35.3107C215.248 36.1094 215.749 36.9635 215.341 37.6607C215.181 37.9322 214.907 38.117 214.724 38.3727C214.54 38.6283 214.481 39.0354 214.733 39.2234C215.013 39.4321 215.401 39.2062 215.672 38.9863Z" fill="#E6E6E6"/>
<path d="M217.193 42.4347C217.452 42.4486 217.71 42.4066 217.951 42.3116C218.192 42.2166 218.41 42.0709 218.59 41.8842C219.52 41.1215 220.333 40.2268 221.004 39.2285C219.439 39.7248 217.874 40.2211 216.31 40.7173L216.797 41.2886C216.364 41.5718 216.685 42.3372 217.193 42.4347Z" fill="#E6E6E6"/>
<path d="M221.579 45.6597C221.675 45.9041 221.848 46.1104 222.071 46.2472C222.295 46.3839 222.557 46.4435 222.818 46.4169C223.078 46.3823 223.326 46.2911 223.547 46.1497C223.768 46.0083 223.955 45.8201 224.095 45.5985C224.333 45.2473 224.473 44.8389 224.5 44.4154C224.527 43.9919 224.441 43.5688 224.25 43.1899C224.06 42.8109 223.771 42.4898 223.415 42.2598C223.059 42.0299 222.648 41.8993 222.224 41.8818L222.656 42.5427C222.767 43.6709 221.235 44.58 221.579 45.6597Z" fill="#E6E6E6"/>
<path d="M251.971 58.0156C252.395 58.3318 252.909 58.5021 253.437 58.5008C253.965 58.4996 254.478 58.3269 254.9 58.0086C255.173 57.7748 255.396 57.4869 255.553 57.1631C255.71 56.8392 255.799 56.4864 255.813 56.1266C255.828 55.7668 255.768 55.4079 255.638 55.0723C255.508 54.7367 255.309 54.4317 255.056 54.1763L254.257 54.6231C253.813 54.3379 253.277 54.2359 252.76 54.3387C252.243 54.4415 251.786 54.741 251.486 55.1742C251.216 55.6283 251.117 56.1638 251.206 56.6845C251.295 57.2053 251.566 57.6772 251.971 58.0156Z" fill="#E6E6E6"/>
<path d="M261.265 59.0691C261.654 58.9559 262.008 58.7446 262.292 58.4554C262.577 58.1662 262.782 57.8088 262.889 57.4173L261.335 57.2128C260.903 56.886 260.4 56.666 259.867 56.5706C259.599 56.5305 259.326 56.5836 259.093 56.721C258.861 56.8584 258.682 57.0718 258.587 57.3253C258.554 57.5411 258.577 57.7617 258.653 57.9662C258.729 58.1707 258.857 58.3522 259.023 58.4934C259.316 58.7735 259.676 58.9735 260.069 59.0743C260.462 59.1751 260.873 59.1733 261.265 59.0691Z" fill="#E6E6E6"/>
<path d="M254.849 62.1794C254.876 62.4325 254.975 62.6726 255.133 62.8716C255.292 63.0705 255.504 63.2202 255.744 63.3031C256.007 63.4279 256.301 63.4707 256.588 63.4262C256.875 63.3816 257.143 63.2517 257.355 63.0533C257.449 62.9472 257.516 62.8203 257.551 62.683C257.586 62.5458 257.588 62.4021 257.556 62.2641C257.525 62.126 257.461 61.9974 257.37 61.889C257.279 61.7807 257.163 61.6957 257.032 61.641L255.867 61.4289C255.417 61.1955 254.841 61.6718 254.849 62.1794Z" fill="#E6E6E6"/>
<path d="M187.239 70.3828L186.337 69.5583C186.577 69.8931 186.884 70.1739 187.239 70.3828Z" fill="#E6E6E6"/>
<path d="M180.35 65.5276C180.906 68.1092 183.683 70.2124 186.204 69.4367L186.337 69.5583C185.534 68.4583 185.398 66.8308 185.586 65.4154C185.934 62.99 186.886 60.6914 188.355 58.7317C189.824 56.7719 191.762 55.2142 193.991 54.2022C194.601 54.0114 195.147 53.6553 195.568 53.1733C195.928 52.6472 195.793 51.745 195.174 51.5964C194.838 51.5579 194.499 51.6366 194.213 51.8192L189.528 54.128C187.162 55.2942 184.748 56.4937 182.889 58.3674C181.031 60.241 179.795 62.9458 180.35 65.5276Z" fill="#E6E6E6"/>
<path d="M104.719 154.302C100.354 151.173 95.5727 148.671 90.5146 146.869C87.4056 145.762 84.0651 144.918 80.8258 145.546C79.0494 145.914 77.3848 146.697 75.9671 147.83C74.5494 148.963 73.4187 150.415 72.6667 152.068C71.9423 153.733 71.6016 155.539 71.67 157.354C71.7383 159.169 72.2139 160.945 73.0615 162.55C74.5552 165.353 77.142 167.585 78.0068 170.642C78.5898 172.702 78.3136 174.896 78.033 177.019C77.4595 181.358 76.886 185.697 76.3125 190.036C75.7904 193.986 75.2816 198.097 76.5308 201.88C77.7799 205.664 81.3444 208.999 85.304 208.597L86.0886 208.538C83.4694 206.755 82.7352 203.063 83.5151 199.989C84.295 196.915 86.2743 194.309 88.2069 191.796C93.9419 184.34 99.6769 176.884 105.412 169.427C107.732 166.411 110.186 162.682 108.949 159.081C108.246 157.035 106.477 155.562 104.719 154.302Z" fill="#E6E6E6"/>
<path d="M65.6356 135.452C65.0548 135.255 64.4413 135.693 64.0998 136.203C63.8238 136.751 63.4995 137.273 63.1308 137.763C62.2374 138.685 60.6093 138.502 59.6458 137.653C58.6822 136.805 58.2648 135.493 58.0778 134.222C57.8534 132.697 57.9503 130.996 58.9554 129.829C59.9902 128.627 61.691 128.304 63.256 128.055C64.8727 127.797 66.6838 127.582 68.0082 128.545C68.8425 129.152 69.3287 130.131 70.1015 130.815C70.8743 131.498 72.2489 131.757 72.8305 130.904C72.9827 130.602 73.0597 130.268 73.0548 129.929C73.0499 129.591 72.9634 129.259 72.8026 128.961C72.4756 128.368 72.279 127.712 72.2257 127.037C72.2646 126.1 73.0162 125.355 73.7852 124.82C74.5541 124.284 75.4225 123.822 75.927 123.031C76.5476 122.059 76.4817 120.807 76.8666 119.72C77.7984 117.088 81.1235 115.917 82.0921 113.299C82.3254 112.748 82.3516 112.131 82.1659 111.563C81.7604 110.52 80.6646 110.724 80.5975 109.45C80.5331 108.23 81.549 107.034 82.5812 106.525C84.0044 105.823 85.6635 105.88 87.2495 105.837C88.8355 105.795 90.5442 105.583 91.7081 104.504C92.0848 104.115 92.3753 103.651 92.5605 103.142C92.7457 102.633 92.8215 102.091 92.783 101.55C92.7444 101.01 92.5923 100.484 92.3366 100.007C92.081 99.5293 91.7276 99.1113 91.2994 98.7801C90.4322 98.1803 89.3357 97.9718 88.4919 97.3395C87.4408 96.5519 86.9432 95.2402 86.1246 94.2126C85.4435 93.4302 84.6642 92.7393 83.8061 92.1572C83.1036 91.6354 82.4011 91.1135 81.6987 90.5916C80.4288 89.6481 79.1075 88.6807 77.5622 88.3445C76.0169 88.0084 74.1767 88.484 73.4028 89.8648C73.0976 90.4801 72.9309 91.155 72.9145 91.8419C72.844 93.4591 72.9114 95.0795 73.1159 96.6852C73.2434 97.9778 73.3709 99.2703 73.4985 100.563C73.6128 101.722 73.4901 103.249 72.3666 103.55C69.8744 104.217 70.7154 100.528 70.1627 99.3972C69.3166 97.667 65.4294 96.8362 63.7676 96.1151C62.7297 95.6648 61.6344 95.1677 61.0078 94.2249C60.2278 93.0515 60.3879 91.4543 60.9995 90.1848C61.6112 88.9152 62.6077 87.8819 63.513 86.8025C64.4359 85.7022 65.2762 84.5355 66.1156 83.3701C67.0891 82.0185 68.0626 80.6668 69.0361 79.3152C70.2847 77.5816 71.5972 75.466 70.888 73.4501C70.7343 73.1804 70.5045 72.9621 70.2275 72.8226C69.9505 72.683 69.6385 72.6284 69.3306 72.6656C69.0227 72.7028 68.7326 72.8301 68.4967 73.0315C68.2607 73.233 68.0893 73.4997 68.0041 73.7983C67.6932 74.8865 68.5225 76.2761 67.7292 77.0825C67.4575 77.3017 67.1174 77.4182 66.7685 77.4116C66.4197 77.4051 66.0842 77.276 65.8209 77.0468C65.3071 76.5717 64.9158 75.9792 64.6803 75.3199C63.7192 73.1814 62.7829 71.0297 61.7963 68.9029C61.4845 68.2306 61.159 67.0794 60.2138 67.1927C59.3934 67.2911 58.9503 68.4883 58.9788 69.1833C59.0202 70.1946 59.5785 71.0982 60.0051 72.0157C60.4318 72.9332 60.7301 74.035 60.2617 74.9319C59.6685 76.0674 58.1663 76.3225 56.887 76.285C54.4756 76.2119 52.1128 75.5877 49.9793 74.4601C49.9236 75.6468 49.8678 76.8335 49.8121 78.0202C48.114 77.3085 46.4159 76.5969 44.7179 75.8852C44.3881 75.747 44.0583 75.6088 43.7285 75.4706C42.2961 74.8703 40.8619 74.2693 39.3873 73.782C38.5502 73.5053 37.7014 73.2657 36.8529 73.0263C36.3371 72.8807 35.8213 72.7351 35.3056 72.5896C34.2878 72.2285 33.2083 72.0743 32.1303 72.136C30.9977 72.2785 29.9875 72.8875 28.94 73.3429C26.6031 74.3586 23.5804 73.3368 21.0761 73.3187C20.0827 71.8666 18.7416 70.6871 17.1754 69.888C15.6091 69.0889 13.8678 68.6958 12.1107 68.7445C10.3535 68.7933 8.63659 69.2824 7.11696 70.1671C5.59733 71.0517 4.32348 72.3038 3.41193 73.8087C2.97163 74.5712 2.57952 75.3606 2.23791 76.1722C1.89812 76.9347 1.55832 77.6971 1.21851 78.4595C0.720038 79.578 0.210565 80.7564 0.308543 81.9772C0.406521 83.1981 1.34126 84.4453 2.56445 84.4342C-0.319936 85.7417 -0.920139 90.3169 1.52918 92.3259C2.2074 92.8821 3.03909 93.246 3.64942 93.8762C4.11071 94.3525 4.41932 94.9559 4.53564 95.6091C4.65196 96.2623 4.57069 96.9354 4.30226 97.542C4.03382 98.1486 3.59046 98.6611 3.02909 99.0136C2.46771 99.3661 1.81394 99.5427 1.15165 99.5206C2.86047 100.182 4.74272 100.243 6.49095 99.695C8.23918 99.1467 9.75005 98.0211 10.7768 96.5019C11.8239 94.8603 12.2791 92.8095 13.7036 91.4829C15.5901 89.726 18.7063 89.8624 20.8822 91.2438C23.0581 92.6252 24.4346 94.9773 25.3814 97.3764C26.6222 100.52 27.4163 104.113 30.0597 106.216C31.3379 107.233 32.9565 107.805 34.0863 108.985C35.6951 110.665 35.9734 113.201 35.9371 115.529C35.9009 117.856 35.6505 120.271 36.4973 122.439C37.3441 124.607 39.7716 126.39 41.9485 125.573C41.3249 127.425 41.344 129.434 42.0028 131.275C42.6615 133.115 43.9214 134.679 45.5783 135.713C45.1817 133.25 44.7851 130.787 44.3886 128.324C46.3652 128.881 47.6464 130.801 48.3863 132.719C49.1262 134.637 49.5171 136.711 50.5896 138.464C52.2785 141.225 55.3367 142.415 58.4478 142.405C61.8086 142.393 63.0846 140.789 65.2994 138.426C65.7444 138.023 66.0821 137.515 66.2821 136.949C66.3725 136.663 66.3569 136.354 66.2381 136.08C66.1193 135.805 65.9054 135.582 65.6356 135.452Z" fill="#E6E6E6"/>
<path d="M75.1522 135.33C73.2737 135.034 71.3951 134.738 69.5166 134.443C70.5014 135.036 71.4862 135.628 72.4709 136.221C73.2921 136.768 74.185 137.199 75.1242 137.501C75.5952 137.649 76.0916 137.699 76.5826 137.647C77.0736 137.596 77.5488 137.443 77.9786 137.2L77.7381 136.74C77.3593 135.781 76.1698 135.49 75.1522 135.33Z" fill="#E6E6E6"/>
<path d="M73.8757 145.785L73.8887 145.752C73.7751 145.563 73.6077 145.413 73.4081 145.321C73.2085 145.228 72.9858 145.197 72.7686 145.232C72.3359 145.31 71.8935 145.317 71.4585 145.254C71.1822 145.145 70.9357 144.973 70.7398 144.75C70.5438 144.527 70.404 144.26 70.332 143.972C70.1453 143.409 70.0901 142.807 69.8774 142.254C69.7238 141.817 69.4526 141.43 69.0937 141.137C68.7347 140.844 68.302 140.655 67.843 140.593C67.3825 140.556 66.9259 140.702 66.572 140.999C66.2181 141.296 65.9954 141.721 65.9519 142.182C65.9881 142.656 66.1385 143.114 66.3904 143.517C66.593 143.908 66.7957 144.298 66.9983 144.688C67.1691 145.038 67.3655 145.374 67.586 145.695C67.9447 146.19 68.4136 146.594 68.9557 146.876C69.4977 147.157 70.0978 147.308 70.7084 147.317C71.319 147.326 71.9232 147.192 72.473 146.926C73.0228 146.66 73.5031 146.269 73.8757 145.785Z" fill="#E6E6E6"/>
<path d="M62.9046 45.692C64.335 46.5363 66.1263 47.1183 66.8059 48.6352L67.198 48.762C66.7703 49.2941 66.3427 49.8262 65.915 50.3583C65.3864 51.0159 64.8307 51.7486 64.843 52.5925C64.8601 53.7548 65.9767 54.6317 67.105 54.9058C68.3091 55.1538 69.5622 54.9451 70.6212 54.3201C71.6801 53.6952 72.4694 52.6985 72.8358 51.5237C72.97 51.0337 73.0254 50.5255 73.1431 50.0313C73.486 48.8592 74.0037 47.7456 74.6786 46.7282C78.477 40.33 82.2753 33.9317 86.0737 27.5335C86.5467 26.7366 87.0344 25.7834 86.6786 24.9276C86.4888 24.5657 86.195 24.2689 85.8352 24.0756C85.4754 23.8822 85.0661 23.8012 84.6598 23.8429C83.8492 23.9415 83.0672 24.2049 82.3617 24.6168C82.0484 24.0656 81.6061 23.5988 81.0728 23.2565C80.5396 22.9142 79.9313 22.7066 79.3003 22.6515C78.0384 22.5541 76.7692 22.6647 75.5431 22.9792C72.7733 23.3976 70.1024 24.3163 67.6605 25.6905C66.3246 26.3667 64.8545 27.2018 64.4669 28.6494C63.9902 30.4302 65.5266 32.2451 67.2956 32.7568C69.0645 33.2686 70.9526 32.8388 72.743 32.4081C72.9454 33.277 72.861 34.1883 72.5026 35.0053C72.1442 35.8222 71.531 36.5009 70.7549 36.9395C69.9788 37.3781 69.0817 37.5531 68.1979 37.4382C67.3141 37.3233 66.4913 36.9248 65.8529 36.3022C64.5695 35.0511 63.941 32.8791 62.179 32.5562C60.4227 32.2343 59.0266 34.1099 58.6389 35.8551C58.2598 37.7348 58.4654 39.6856 59.2282 41.4446C59.9909 43.2035 61.2741 44.686 62.9046 45.692Z" fill="#E6E6E6"/>
<path d="M84.9342 76.4793C84.0884 74.0922 82.9768 71.8082 81.6203 69.6703C80.5922 67.9799 79.3232 66.4487 77.8534 65.1252C76.5102 63.9639 74.9662 63.0583 73.2975 62.4531C71.6778 61.8666 69.8746 61.5769 68.2371 62.1116C66.5997 62.6464 65.2067 64.1708 65.2398 65.895C65.2765 67.8014 66.9425 69.2924 68.6788 70.0758C70.415 70.8591 72.3464 71.2 73.9845 72.1725C75.0983 72.8488 76.0291 73.7888 76.6951 74.9096C77.3611 76.0305 77.7419 77.298 77.8041 78.6008L78.2166 79.2838C77.282 79.5939 76.4103 80.0691 75.6429 80.6868C75.2629 81.0009 74.9724 81.4097 74.8008 81.8721C74.6292 82.3346 74.5825 82.8342 74.6655 83.3204C74.9517 84.4749 76.129 85.1374 77.1936 85.6653C79.1606 86.6407 81.1276 87.6161 83.0947 88.5916C82.0931 85.6014 85.3722 82.8188 85.5536 79.6701C85.5606 78.5759 85.35 77.4912 84.9342 76.4793Z" fill="#E6E6E6"/>
<path d="M35.474 68.4058C36.6672 69.3336 38.5018 68.8996 39.595 67.8554C40.6881 66.8112 41.2205 65.3253 41.717 63.8967C41.5357 65.3108 41.5528 66.7433 41.768 68.1527C41.8801 68.8574 42.1371 69.5312 42.5227 70.1313C42.9083 70.7315 43.4141 71.2449 44.0082 71.6392C44.5476 71.9354 45.1291 72.1474 45.7324 72.2677C48.5373 72.9068 51.4685 72.6972 54.1541 71.6653L54.1782 70.7458C52.8291 70.8999 51.8081 69.4183 51.7191 68.0617C51.63 66.705 52.1217 65.3745 52.165 64.0156C52.2082 62.6567 51.5541 61.069 50.2178 60.8272C50.4517 61.2975 50.537 61.828 50.4624 62.348C50.3877 62.868 50.1567 63.353 49.8 63.7383C49.4433 64.1236 48.9778 64.391 48.4656 64.5049C47.9534 64.6189 47.4186 64.5739 46.9325 64.376C45.3858 63.7464 44.824 61.8598 43.6287 60.6925C42.8901 60.0347 41.9739 59.6102 40.9951 59.4724C40.0163 59.3345 39.0186 59.4895 38.1275 59.9178C37.2477 60.3673 36.4759 61.0026 35.8653 61.78C35.2548 62.5574 34.8201 63.4582 34.5913 64.4203C34.2283 65.8162 34.3361 67.521 35.474 68.4058Z" fill="#E6E6E6"/>
<path d="M72.3003 58.7231L72.3556 58.6331C72.0225 57.6699 70.99 57.1052 69.9821 56.9619C68.9661 56.8948 67.946 56.9285 66.9367 57.0627C65.918 57.1946 64.8853 56.9669 64.0163 56.4187C63.3225 55.8994 62.9273 55.0824 62.3727 54.4162C61.8181 53.75 60.9205 53.2022 60.1148 53.5207C59.2426 53.8656 59.0099 55.0897 59.4332 55.9275C59.9318 56.7317 60.684 57.3464 61.5708 57.6745C64.9289 59.2178 68.7075 59.5871 72.3003 58.7231Z" fill="#E6E6E6"/>
<path d="M60.8375 61.61C60.5585 61.8146 60.3694 62.1193 60.3097 62.4603C60.25 62.8014 60.3243 63.1523 60.5171 63.4398C60.7099 63.7272 61.0062 63.9288 61.3441 64.0025C61.682 64.0762 62.0352 64.0162 62.33 63.835L62.6242 64.1259C63.0156 63.4241 63.177 62.484 62.6765 61.8557C62.454 61.5952 62.1433 61.426 61.8039 61.3807C61.4646 61.3354 61.1204 61.417 60.8375 61.61Z" fill="#E6E6E6"/>
<path d="M57.3942 64.1274C57.3985 63.8767 57.3268 63.6306 57.1888 63.4214C57.0507 63.2122 56.8526 63.0498 56.6205 62.9555C56.4626 62.9283 56.3008 62.9335 56.1449 62.9707C55.989 63.0078 55.8422 63.0761 55.7133 63.1716C55.5845 63.2671 55.4763 63.3876 55.3953 63.5261C55.3142 63.6645 55.262 63.8179 55.2417 63.9771C55.2175 64.3014 55.26 64.6272 55.3668 64.9343C55.4735 65.2414 55.6422 65.5233 55.8624 65.7624C55.9904 65.9549 56.1578 66.1182 56.3535 66.2413C56.5491 66.3643 56.7686 66.4445 56.9975 66.4765C57.4587 66.4916 57.9289 66.0087 57.7419 65.5864L57.0377 65.5726C57.2547 65.1206 57.376 64.6286 57.3942 64.1274Z" fill="#E6E6E6"/>
<path d="M43.6235 56.9068C43.8821 57.1167 44.1407 57.3265 44.3994 57.5364C44.8473 57.9242 45.3312 58.2682 45.8445 58.5638C46.7422 59.0617 47.798 59.1911 48.7892 58.9247C49.2786 58.785 49.7249 58.5242 50.0871 58.1663C50.4493 57.8084 50.7157 57.365 50.8617 56.877C51.1709 55.7103 50.6666 54.499 50.173 53.3978C50.0603 53.0827 49.8744 52.799 49.6307 52.57C49.5058 52.4592 49.3464 52.3951 49.1797 52.3886C49.013 52.382 48.8492 52.4334 48.716 52.534C48.6194 52.6544 48.5552 52.7976 48.5294 52.9499C48.5037 53.1021 48.5172 53.2585 48.5688 53.4041C48.6749 53.6942 48.7234 54.0022 48.7116 54.3109C48.6624 54.6154 48.3432 54.9032 48.062 54.7773L48.0172 55.8138C46.6745 55.1332 45.9643 53.323 44.47 53.1445C44.1346 53.1044 43.7946 53.1573 43.4872 53.2975C43.1798 53.4376 42.9168 53.6596 42.7268 53.9392C42.5367 54.2188 42.427 54.5453 42.4097 54.883C42.3923 55.2207 42.4679 55.5568 42.6282 55.8545C42.8876 56.2674 43.2259 56.625 43.6235 56.9068Z" fill="#E6E6E6"/>
<path d="M40.4253 52.4322C40.7359 52.219 40.9817 51.924 41.1355 51.5798C41.2894 51.2356 41.3453 50.8556 41.2971 50.4816C41.2599 50.3005 41.1833 50.1297 41.0728 49.9816C40.9623 49.8334 40.8205 49.7115 40.6575 49.6244C40.4946 49.5374 40.3145 49.4873 40.13 49.4779C39.9456 49.4684 39.7613 49.4997 39.5903 49.5696C39.2067 49.8568 38.9372 50.2709 38.8297 50.7383C38.4759 51.7378 38.122 52.7373 37.7681 53.7368L38.3629 53.3035C39.0987 53.1448 39.7983 52.8493 40.4253 52.4322Z" fill="#E6E6E6"/>
<path d="M47.3178 46.2984C47.424 46.1642 47.4996 46.0083 47.5392 45.8417C47.5789 45.6752 47.5815 45.5019 47.5471 45.3342C47.5126 45.1665 47.4418 45.0083 47.3398 44.871C47.2377 44.7336 47.1068 44.6202 46.9562 44.539L46.2125 44.4694C46.0434 44.5122 45.8867 44.5942 45.755 44.7086C45.6232 44.8231 45.5201 44.9669 45.4539 45.1285C45.3877 45.2901 45.3602 45.4649 45.3737 45.6391C45.3872 45.8132 45.4413 45.9817 45.5315 46.1312C45.6218 46.2806 45.7459 46.4067 45.8937 46.4995C46.0415 46.5923 46.2089 46.6491 46.3826 46.6653C46.5563 46.6816 46.7313 46.6569 46.8937 46.5931C47.0561 46.5294 47.2014 46.4284 47.3178 46.2984Z" fill="#E6E6E6"/>
<path d="M54.1599 47.4477C54.8539 47.7802 55.7324 48.097 56.3361 47.6196C56.5149 47.4575 56.648 47.2511 56.7218 47.0212C56.7955 46.7913 56.8075 46.5459 56.7564 46.3099C56.6481 45.839 56.4387 45.3974 56.1428 45.0157C55.2195 43.6885 54.0464 42.5543 52.6893 41.6769L52.3538 42.1134C51.8851 43.3319 51.4326 44.7544 52.0863 45.8843C52.5271 46.646 53.3667 47.0678 54.1599 47.4477Z" fill="#E6E6E6"/>
<path d="M59.3301 48.5322L60.6278 49.1199C60.5006 48.8979 60.3067 48.7216 60.0738 48.6161C59.8408 48.5106 59.5806 48.4812 59.3301 48.5322Z" fill="#E6E6E6"/>
<path d="M55.8327 52.6205L55.2195 52.8228C54.698 53.6808 54.9243 54.7779 55.1668 55.7524C55.3201 56.3685 55.6509 57.1266 56.2844 57.0986C56.9008 57.0713 57.1736 56.3229 57.2919 55.7165C57.4765 55.0578 57.4966 54.3638 57.3502 53.6955C57.2666 53.3647 57.0678 53.0746 56.7896 52.8775C56.5114 52.6804 56.1721 52.5893 55.8327 52.6205Z" fill="#E6E6E6"/>
<path d="M46.0535 49.7328L46.5073 49.9158C46.6137 49.9006 46.7121 49.8506 46.7872 49.7738C46.8624 49.6969 46.9102 49.5973 46.9231 49.4905C46.936 49.3837 46.9134 49.2756 46.8587 49.183C46.804 49.0903 46.7204 49.0183 46.6207 48.9781C46.521 48.9379 46.4109 48.9318 46.3074 48.9607C46.2038 48.9895 46.1127 49.0517 46.0481 49.1377C45.9835 49.2237 45.949 49.3286 45.95 49.4362C45.951 49.5438 45.9874 49.648 46.0535 49.7328Z" fill="#E6E6E6"/>
<path d="M68.9289 84.4719C68.7091 84.4768 68.4936 84.5343 68.3005 84.6395C68.1074 84.7447 67.9422 84.8946 67.8187 85.0767C67.6952 85.2589 67.617 85.4679 67.5905 85.6865C67.5641 85.905 67.5903 86.1267 67.6669 86.3331C68.1125 87.2938 69.647 87.2979 70.329 86.4881C70.5037 86.2581 70.6289 85.9942 70.6966 85.7133C70.7643 85.4324 70.7732 85.1405 70.7226 84.856C70.672 84.5715 70.563 84.3006 70.4026 84.0604C70.2421 83.8201 70.0337 83.6158 69.7904 83.4603L68.9289 84.4719Z" fill="#E6E6E6"/>
<path d="M91.031 107.229C90.8526 107.277 90.6856 107.36 90.5398 107.473C90.394 107.586 90.2724 107.728 90.1821 107.889C90.0919 108.05 90.0348 108.228 90.0144 108.412C89.9939 108.595 90.0104 108.781 90.063 108.959L91.3369 109.047C91.7683 108.83 92.1998 108.613 92.6312 108.397C92.6051 108.214 92.5426 108.038 92.4475 107.879C92.3524 107.721 92.2265 107.583 92.0773 107.474C91.9281 107.366 91.7587 107.288 91.579 107.246C91.3992 107.204 91.2129 107.198 91.031 107.229Z" fill="#E6E6E6"/>
<path d="M85.8526 108.807C85.4881 109.066 85.1955 109.414 85.0024 109.818C84.8093 110.221 84.7221 110.668 84.7489 111.115C84.7904 111.56 84.9724 111.981 85.2687 112.316C85.565 112.652 85.9602 112.884 86.397 112.979C86.8379 113.049 87.2887 112.947 87.658 112.697C88.0274 112.446 88.2879 112.064 88.3867 111.628C88.6022 110.309 87.186 109.342 86.677 108.106L85.8526 108.807Z" fill="#E6E6E6"/>
<path d="M135.333 100.093C135.468 101.084 134.577 101.951 134.543 102.951C134.504 104.136 135.793 105.058 136.972 104.942C137.557 104.84 138.11 104.604 138.589 104.252C139.067 103.9 139.458 103.442 139.73 102.913L139.755 102.802C139.181 102.152 138.607 101.503 138.033 100.853C137.328 100.055 136.58 99.1465 136.608 98.0813C136.621 97.5563 136.828 97.0475 136.816 96.5224C136.789 96.1447 136.705 95.7732 136.567 95.4206C136.411 94.956 136.2 94.4325 135.736 94.2757C135.156 94.0794 134.57 94.5943 134.293 95.1413C134.044 95.6458 133.923 96.204 133.94 96.7666C133.958 97.3291 134.114 97.8786 134.394 98.3664C134.729 98.9365 135.244 99.4378 135.333 100.093Z" fill="#E6E6E6"/>
<path d="M129.919 103.578C130.044 103.646 130.183 103.686 130.325 103.695C130.468 103.704 130.61 103.682 130.744 103.631C131.255 103.544 131.747 103.365 132.195 103.103C132.418 102.969 132.601 102.778 132.726 102.55C132.85 102.322 132.912 102.065 132.905 101.805C132.828 101.478 132.655 101.182 132.409 100.953C132.163 100.724 131.855 100.574 131.524 100.521C131.294 100.44 131.048 100.417 130.807 100.454C130.566 100.49 130.338 100.586 130.142 100.732C129.714 101.134 129.765 101.816 129.849 102.397L129.759 102.549C129.679 102.908 129.627 103.354 129.919 103.578Z" fill="#E6E6E6"/>
<path d="M220.295 145.908C220.171 145.599 220.047 145.289 219.923 144.98C219.752 145.4 219.816 145.83 220.295 145.908Z" fill="#E6E6E6"/>
<path d="M294.846 80.867C293.252 79.1357 292.276 78.1376 291.27 75.9916C290.722 74.8081 289.89 73.7787 288.849 72.9955C287.807 72.2122 286.588 71.6993 285.3 71.5028C281.993 70.9574 278.615 71.821 275.268 71.6479C269.908 71.3707 265.075 68.4922 259.942 66.9221C257.068 66.1158 254.141 65.5114 251.183 65.1133C249.478 64.8434 247.774 64.5735 246.069 64.3036C240.482 63.4189 234.859 62.5316 229.203 62.6491C227.573 62.683 225.301 62.1922 225.431 60.5642C225.594 58.5423 229.227 58.8077 229.926 56.9038C230.358 55.726 229.323 54.4894 228.189 53.9568C227.054 53.4242 225.744 53.2641 224.714 52.5491C223.684 51.8341 223.12 50.1766 224.066 49.3541C221.443 50.7007 218.819 52.0474 216.196 53.394C214.014 54.5136 211.577 55.9703 211.192 58.394C209.878 58.7417 208.728 59.5418 207.943 60.6538C206.468 60.6615 205.308 62.0801 205.065 63.5374C204.821 64.9948 205.264 66.4698 205.701 67.8811C205.166 66.8544 204.597 65.7886 203.654 65.1187C202.71 64.4489 201.274 64.3213 200.469 65.1535C199.644 66.0074 199.837 67.4402 200.421 68.4748C201.005 69.5094 201.902 70.3445 202.453 71.3971C204.174 74.6847 201.056 79.3131 197.367 78.9469C197.614 75.5522 197.861 72.1574 198.109 68.7627C198.266 67.7185 198.178 66.6521 197.853 65.6476C197.45 64.6758 196.42 63.8777 195.395 64.1072C193.551 64.5198 193.708 67.2239 194.475 68.9526C195.242 70.6813 196.007 73.0852 194.441 74.1439C193.43 74.8276 192.059 74.4053 190.968 73.8596C189.876 73.3139 188.709 72.6415 187.516 72.8964C186.323 73.1513 185.572 74.9775 186.626 75.5924C184.878 75.2882 183.13 74.984 181.382 74.6798C181.295 75.1951 181.102 75.6864 180.814 76.1221C180.525 76.5578 180.149 76.9281 179.709 77.2091C179.269 77.4901 178.776 77.6756 178.26 77.7536C177.744 77.8315 177.217 77.8003 176.714 77.6617C176.542 76.9496 176.371 76.2375 176.199 75.5253C175.943 75.454 175.687 75.3827 175.431 75.3114C176.235 75.5353 174.978 78.9261 173.852 81.5163C172.338 81.3385 170.125 81.3042 169.872 80.8698C168.663 78.7894 168.807 73.8341 166.706 72.6636C165.653 72.0767 164.572 71.5418 163.465 71.0591C162.884 70.782 162.269 70.58 161.637 70.458C160.347 70.2544 159.046 70.6551 157.801 71.0509C156.33 71.5186 154.825 72.0039 153.607 72.953C152.567 73.8563 151.676 74.9178 150.965 76.0986C148.561 79.662 146.156 83.2254 143.751 86.7887C143.035 87.7404 142.471 88.7981 142.081 89.9237C141.896 90.4835 141.835 91.0764 141.901 91.662C141.967 92.2476 142.158 92.8122 142.461 93.3171C142.781 93.812 143.258 94.1848 143.815 94.3754C144.372 94.5661 144.977 94.5634 145.533 94.3679C146.23 94.0659 146.928 93.3812 147.618 93.6974C148.141 93.9369 148.272 94.6253 148.217 95.1985C148.084 95.7598 148.074 96.3432 148.187 96.9089C148.501 97.8012 149.711 98.1117 150.573 97.7256C151.412 97.2673 152.041 96.501 152.327 95.588C153.158 93.4532 153.074 91.0911 153.281 88.8091C153.487 86.5271 154.11 84.0864 155.907 82.6675C156.445 82.2428 157.236 81.9366 157.789 82.3405C157.997 82.5292 158.14 82.7779 158.199 83.0521C158.258 83.3262 158.231 83.612 158.12 83.8697C157.888 84.3794 157.587 84.8542 157.223 85.28C156.609 86.1448 156.18 87.1269 155.961 88.1651C155.743 89.2033 155.74 90.2754 155.953 91.3148L156.32 91.5423C157.721 91.1785 159.596 91.83 161.457 92.4547C160.106 92.8568 158.917 93.6755 158.06 94.7942C155.909 97.8147 154.353 100.673 150.1 100.637C149.091 100.629 148.09 100.429 147.081 100.427C146.063 100.364 145.06 100.698 144.282 101.36C143.517 102.11 143.281 103.252 142.626 104.1C141.766 105.216 140.327 105.669 139.014 106.176C138.054 106.546 137.042 107.046 136.601 107.976C136.323 108.739 136.259 109.564 136.416 110.361C136.564 111.77 136.826 113.373 138.02 114.133C138.466 114.367 138.954 114.509 139.456 114.551C139.958 114.594 140.463 114.536 140.943 114.381C142.185 114.078 143.399 113.509 144.675 113.594C146.677 113.728 148.326 115.652 148.346 117.662C148.357 118.679 148.06 119.845 148.734 120.607C149.366 121.323 150.621 121.195 151.277 120.5C151.582 120.131 151.791 119.692 151.888 119.223C151.984 118.753 151.964 118.267 151.829 117.807C151.551 116.891 151.123 116.027 150.562 115.251C151.229 115.078 151.934 115.142 152.559 115.431C153.184 115.72 153.69 116.218 153.99 116.838C154.435 117.827 154.291 118.969 154.433 120.045C154.575 121.121 155.229 122.316 156.311 122.378C156.665 122.388 157.011 122.274 157.289 122.055C157.568 121.836 157.761 121.527 157.835 121.18C157.847 120.634 157.817 120.088 157.746 119.547C157.783 119.014 158.023 118.515 158.415 118.153C158.807 117.791 159.323 117.593 159.857 117.6C159.528 118.209 159.421 118.913 159.554 119.593C159.687 120.272 160.052 120.884 160.587 121.323C161.41 121.961 162.498 122.104 163.524 122.282C164.55 122.46 165.644 122.742 166.306 123.547C167.409 124.887 166.06 125.491 165.85 126.625C165.592 128.019 166.754 130.076 167.2 131.409C169.252 134.283 171.304 137.156 173.355 140.03C173.813 140.729 174.353 141.37 174.964 141.94C176.989 143.681 180.328 143.509 182.27 141.675C183.212 140.722 183.823 139.491 184.014 138.163C184.206 136.836 183.967 135.482 183.334 134.3C182.134 132.113 179.755 130.758 178.581 128.556C180.536 130.177 182.935 131.165 185.463 131.39C189.935 132.3 194.183 134.084 197.966 136.64C198.143 140.597 199.66 144.375 202.265 147.355C202.734 143.978 204.306 140.852 206.736 138.465C208.317 136.921 210.477 135.677 212.645 136.092C214.813 136.507 216.459 139.276 215.147 141.054C216.246 141.136 217.345 141.218 218.444 141.299C218.937 142.526 219.43 143.753 219.923 144.98C220.01 144.722 220.178 144.499 220.402 144.344C220.625 144.189 220.892 144.109 221.164 144.117C222.193 144.273 222.915 145.231 223.893 145.585C225.738 146.252 227.71 144.404 227.949 142.455C228.187 140.506 227.261 138.624 226.362 136.879C228.349 137.247 230.401 137.028 232.266 136.247C234.131 135.465 235.727 134.157 236.861 132.481C237.994 130.805 238.615 128.835 238.648 126.811C238.68 124.788 238.122 122.798 237.043 121.087C239.181 118.838 241.698 116.983 244.478 115.606C247.051 114.333 249.866 113.46 252.114 111.674C254.363 109.889 255.94 106.789 254.858 104.128C254.094 102.248 252.178 100.972 251.604 99.0247C250.774 96.2064 253.296 93.2913 256.145 92.5872C258.994 91.8831 261.97 92.7485 264.776 93.6072C264.345 90.7156 267.692 88.005 270.426 89.0317C271.571 88.5675 272.716 88.1033 273.861 87.639C272.534 90.5691 269.658 92.4332 267.543 94.8555C265.428 97.2777 264.169 101.222 266.378 103.559C269.545 100.685 272.711 97.8113 275.878 94.9376C279.19 91.9318 282.502 88.9259 285.814 85.9201C285.656 85.4549 285.498 84.9897 285.34 84.5245C288.474 83.3328 291.848 82.347 294.846 80.867Z" fill="#E6E6E6"/>
<path d="M130.373 119.542C130.245 119.727 130.177 119.946 130.178 120.171C130.179 120.395 130.25 120.614 130.379 120.797C130.55 120.942 130.765 121.023 130.988 121.026C131.211 121.029 131.428 120.954 131.602 120.814C131.942 120.523 132.208 120.155 132.376 119.74C132.541 120.059 132.799 120.319 133.117 120.486C133.434 120.652 133.795 120.716 134.15 120.67C134.86 120.563 135.532 120.283 136.107 119.853C136.563 119.586 136.966 119.236 137.295 118.821C137.458 118.612 137.57 118.368 137.622 118.109C137.674 117.849 137.664 117.581 137.594 117.325C137.423 116.933 137.158 116.59 136.822 116.327C135.984 115.552 135.146 114.777 134.308 114.002L134.024 113.917C133.876 113.759 133.698 113.634 133.501 113.547C133.303 113.46 133.09 113.414 132.874 113.412C132.659 113.409 132.445 113.451 132.245 113.533C132.046 113.616 131.865 113.738 131.714 113.892C131.194 114.475 131.191 115.347 131.271 116.125C131.35 116.903 131.474 117.731 131.128 118.432C130.93 118.834 130.594 119.152 130.373 119.542Z" fill="#E6E6E6"/>
<path d="M178.987 146.014C175.731 145.288 172.75 143.644 170.397 141.276C168.045 138.908 166.418 135.916 165.71 132.652C165.401 131.111 165.261 129.429 164.238 128.238C163.247 127.085 161.628 126.669 160.109 126.669C158.591 126.669 157.093 127.019 155.577 127.114C152.927 127.279 150.118 126.578 148.223 124.716C147.325 123.834 146.646 122.714 145.597 122.018C144.188 121.083 142.321 121.084 140.715 121.614C138.927 122.204 137.496 123.818 135.541 123.596C133.508 123.365 131.151 122.645 130.354 125.326C130.124 126.098 130.202 126.944 129.912 127.695C129.464 128.853 128.274 129.505 127.334 130.313C125.439 131.942 124.432 134.416 124.093 136.893C123.753 139.37 124.016 141.885 124.279 144.372C124.42 145.713 124.607 147.156 125.527 148.141C126.809 149.514 128.961 149.46 130.832 149.306C133.006 149.126 135.18 148.946 137.354 148.767C138.526 148.67 139.861 148.629 140.695 149.458C141.195 149.955 141.406 150.675 141.846 151.226C142.241 151.695 142.782 152.016 143.383 152.138C143.983 152.259 144.607 152.173 145.153 151.893C144.712 152.682 144.472 153.567 144.454 154.47C144.436 155.374 144.641 156.268 145.05 157.073C145.46 157.878 146.061 158.57 146.801 159.087C147.542 159.604 148.398 159.93 149.294 160.037L149.461 160.143C148.07 162.529 146.626 165.208 147.203 167.911C147.698 170.227 149.614 172.085 149.928 174.433C150.215 176.588 149.092 178.792 149.589 180.908C150.092 183.051 152.253 184.545 154.446 184.704C156.639 184.864 158.793 183.89 160.492 182.492C162.191 181.094 163.504 179.294 164.798 177.514C165.597 176.416 166.417 175.272 166.691 173.941C166.983 172.524 166.644 170.954 167.332 169.683C168.126 168.216 170.009 167.666 170.96 166.296C172.191 164.523 171.465 162.107 171.737 159.964C172.411 154.662 179.14 151.357 178.987 146.014Z" fill="#E6E6E6"/>
<path d="M178.015 164.116C177.831 164.944 177.057 165.49 176.319 165.906C175.581 166.323 174.77 166.744 174.394 167.504C174.009 168.282 174.185 169.21 174.386 170.055C174.805 171.813 175.299 173.551 175.867 175.268C176.968 173.185 177.929 171.031 178.744 168.82C179.09 167.997 179.303 167.125 179.376 166.235C179.41 165.79 179.35 165.342 179.2 164.921C179.051 164.501 178.815 164.116 178.508 163.792L178.015 164.116Z" fill="#E6E6E6"/>
<path d="M223.297 154.894C222.372 153.825 221.448 152.757 220.523 151.688C219.891 150.957 219.17 150.177 218.212 150.055L217.817 150.307C218.619 152.218 219.421 154.129 220.222 156.041C220.506 156.913 221.006 157.7 221.674 158.328C222.392 158.892 223.556 159.001 224.154 158.311C224.347 158.052 224.469 157.748 224.507 157.427C224.545 157.106 224.498 156.781 224.372 156.485C224.111 155.895 223.747 155.356 223.297 154.894Z" fill="#E6E6E6"/>
<path d="M232.256 156.941C232.606 156.819 232.926 156.626 233.197 156.373C233.467 156.121 233.682 155.814 233.828 155.474C234.114 154.792 234.304 154.073 234.39 153.338C234.548 152.381 234.706 151.424 234.864 150.467L234.657 150.413C234.456 150.317 234.228 150.297 234.013 150.356C233.798 150.416 233.613 150.551 233.49 150.738C233.257 151.118 233.081 151.53 232.967 151.961C232.908 152.176 232.802 152.375 232.656 152.544C232.509 152.712 232.327 152.845 232.122 152.933C231.38 153.158 230.677 152.37 229.902 152.401C229.589 152.441 229.299 152.586 229.079 152.812C228.859 153.038 228.722 153.332 228.69 153.647C228.645 154.281 228.825 154.911 229.197 155.427C229.858 156.453 231.084 157.278 232.256 156.941Z" fill="#E6E6E6"/>
<path d="M237.368 158.755L239.499 153.136C238.636 153.763 237.974 154.629 237.596 155.627C237.217 156.625 237.138 157.712 237.368 158.755Z" fill="#E6E6E6"/>
<path d="M248.243 154.225L247.812 154.244C247.619 154.625 247.517 155.046 247.513 155.473C247.509 155.9 247.603 156.323 247.788 156.708C248.166 157.475 248.717 158.145 249.396 158.664C250.449 159.534 251.65 160.206 252.942 160.647C254.837 161.2 256.796 161.502 258.769 161.546C259.897 161.62 261.025 161.693 262.153 161.767C262.691 161.803 263.386 161.734 263.535 161.216C263.658 160.789 263.294 160.386 262.955 160.099C259.97 157.585 256.352 155.94 252.497 155.347C251.034 155.124 249.483 155.033 248.243 154.225Z" fill="#E6E6E6"/>
<path d="M260.283 169.138C259.472 168.35 258.661 167.563 257.849 166.775C257.061 166.009 255.879 165.197 254.974 165.823C254.455 166.182 254.294 166.883 253.854 167.337C253.586 167.577 253.262 167.747 252.911 167.831C252.561 167.914 252.195 167.909 251.847 167.815C251.154 167.62 250.499 167.309 249.91 166.896L247.897 165.645C247.202 165.213 246.508 164.782 245.813 164.35L244.245 165.875C244.314 165.125 243.314 164.637 242.622 164.934C242.293 165.119 242.01 165.375 241.794 165.685C241.578 165.994 241.434 166.348 241.373 166.721C241.258 167.466 241.057 168.195 240.774 168.894C239.978 170.42 238.046 170.871 236.346 171.127C234.646 171.383 232.719 171.742 231.81 173.203C231.052 174.419 231.279 175.981 231.532 177.392L232.49 182.731C232.535 183.378 232.794 183.991 233.227 184.474C234.068 185.218 235.372 184.766 236.399 184.312C238.547 183.278 240.852 182.609 243.219 182.333C245.606 182.065 248.009 182.682 249.975 184.066C251.193 184.994 252.122 186.28 253.413 187.105C254.302 187.641 255.302 187.966 256.336 188.057C257.369 188.147 258.41 188 259.379 187.627C261.32 186.853 262.926 185.418 263.916 183.576C264.794 181.951 265.235 180.125 265.195 178.278C265.155 176.431 264.635 174.626 263.687 173.041C262.718 171.603 261.575 170.292 260.283 169.138Z" fill="#E6E6E6"/>
<path d="M257.891 190.888C257.697 191.125 257.583 191.418 257.566 191.724C257.55 192.03 257.632 192.333 257.8 192.59C258.154 193.097 258.693 193.444 259.3 193.556C259.902 193.664 260.515 193.692 261.124 193.64L261.142 193.184C260.98 192.385 260.612 191.642 260.074 191.029C259.487 190.47 258.448 190.298 257.891 190.888Z" fill="#E6E6E6"/>
<path d="M278.782 191.375L278.491 191.269C277.799 192.314 277.107 193.358 276.414 194.403C276.042 194.965 275.653 195.64 275.881 196.275C276.149 197.026 277.144 197.247 277.916 197.048C278.505 196.888 279.037 196.563 279.448 196.111C279.859 195.659 280.133 195.099 280.238 194.496C280.323 193.891 280.231 193.273 279.973 192.719C279.714 192.165 279.3 191.698 278.782 191.375Z" fill="#E6E6E6"/>
<path d="M284.059 188.06L282.148 186.539C282.122 187.245 282.097 187.95 282.071 188.656L282 188.657C282.44 189.044 282.856 189.458 283.245 189.897C283.693 190.278 284.443 190.452 284.825 190.006C284.94 189.847 285.005 189.657 285.012 189.46C285.019 189.264 284.969 189.07 284.867 188.902C284.656 188.57 284.382 188.284 284.059 188.06Z" fill="#E6E6E6"/>
<path d="M249.534 121.88C248.732 121.855 247.844 121.806 247.223 122.314C247.018 122.497 246.839 122.707 246.69 122.937L246.47 123.244C246.143 123.674 245.857 124.134 245.617 124.619C245.491 124.846 245.416 125.097 245.396 125.356C245.376 125.614 245.412 125.874 245.501 126.118C245.552 126.235 245.628 126.338 245.724 126.422C245.82 126.506 245.933 126.567 246.055 126.602C246.177 126.638 246.306 126.645 246.432 126.625C246.557 126.605 246.677 126.558 246.782 126.486C247.125 126.169 247.045 125.592 247.304 125.203C247.418 125.056 247.565 124.938 247.732 124.858C247.899 124.778 248.083 124.738 248.269 124.741C248.639 124.75 249.008 124.792 249.371 124.865C250.376 125.003 251.4 124.85 252.321 124.424C253.242 123.999 254.022 123.318 254.569 122.462C255.116 121.606 255.407 120.612 255.408 119.596C255.409 118.58 255.119 117.585 254.573 116.729L254.509 116.531C253.953 116.51 253.408 116.684 252.968 117.024C252.528 117.364 252.221 117.847 252.1 118.39C251.921 119.326 252.301 120.412 251.735 121.178C251.257 121.823 250.335 121.905 249.534 121.88Z" fill="#E6E6E6"/>
<path d="M256.712 111.963L256.59 111.952C255.873 112.083 255.184 112.34 254.556 112.711C254.35 112.806 254.186 112.973 254.093 113.181C254.066 113.291 254.066 113.407 254.094 113.517C254.123 113.626 254.178 113.728 254.255 113.811C254.41 113.976 254.593 114.113 254.794 114.217C255.094 114.418 255.425 114.566 255.774 114.656C255.949 114.699 256.132 114.698 256.307 114.653C256.481 114.608 256.642 114.52 256.774 114.397C256.898 114.227 256.984 114.031 257.024 113.824C257.065 113.617 257.06 113.403 257.009 113.198C256.952 112.777 256.852 112.363 256.712 111.963Z" fill="#E6E6E6"/>
<path d="M244.352 122.119C244.544 121.811 244.68 121.472 244.754 121.118C244.829 120.842 244.904 120.567 244.979 120.291L244.18 119.805C243.798 120.004 243.446 120.256 243.133 120.552C242.978 120.701 242.855 120.881 242.772 121.08C242.69 121.28 242.649 121.494 242.653 121.71C242.664 121.925 242.748 122.131 242.89 122.292C243.033 122.454 243.226 122.563 243.438 122.601C243.619 122.607 243.798 122.565 243.959 122.481C244.119 122.396 244.254 122.271 244.352 122.119Z" fill="#E6E6E6"/>
<path d="M157.273 47.6931C156.957 47.8904 157.046 48.3673 157.175 48.7175C157.322 49.1195 157.469 49.5214 157.616 49.9234L157.822 49.1431C158.003 48.8404 158.083 48.4879 158.05 48.1367C157.979 47.7937 157.57 47.5078 157.273 47.6931Z" fill="#E6E6E6"/>
<path d="M47.5366 119.873C49.2877 119.873 50.7072 118.451 50.7072 116.698C50.7072 114.945 49.2877 113.524 47.5366 113.524C45.7855 113.524 44.366 114.945 44.366 116.698C44.366 118.451 45.7855 119.873 47.5366 119.873Z" fill="#2C3792"/>
<path d="M55.9917 104.529C57.7428 104.529 59.1623 103.108 59.1623 101.354C59.1623 99.6009 57.7428 98.1796 55.9917 98.1796C54.2406 98.1796 52.821 99.6009 52.821 101.354C52.821 103.108 54.2406 104.529 55.9917 104.529Z" fill="#2C3792"/>
<path d="M148.997 92.3595C150.748 92.3595 152.167 90.9382 152.167 89.1849C152.167 87.4316 150.748 86.0103 148.997 86.0103C147.246 86.0103 145.826 87.4316 145.826 89.1849C145.826 90.9382 147.246 92.3595 148.997 92.3595Z" fill="#2C3792"/>
<path d="M76.2171 316.121L80.9995 316.12L83.2744 297.651L76.2161 297.651L76.2171 316.121Z" fill="#FFB6B6"/>
<path d="M76.0488 321.116L90.755 321.115V320.929C90.7549 319.409 90.1518 317.951 89.0783 316.877C88.0049 315.802 86.549 315.198 85.0309 315.198L82.3443 313.157L77.3323 315.198L76.0486 315.198L76.0488 321.116Z" fill="#2F2E41"/>
<path d="M112.151 316.121L116.933 316.12L119.208 297.651L112.15 297.651L112.151 316.121Z" fill="#FFB6B6"/>
<path d="M111.983 321.116L126.689 321.115V320.929C126.689 319.409 126.086 317.951 125.012 316.877C123.939 315.802 122.483 315.198 120.965 315.198L118.278 313.157L113.266 315.198L111.982 315.198L111.983 321.116Z" fill="#2F2E41"/>
<path d="M76.0312 165.876L84.5183 164.659C87.3887 169.465 88.4088 182.256 88.4088 182.256L96.7147 202.023C97.2648 202.397 97.7067 202.909 97.996 203.509C98.2854 204.108 98.4119 204.774 98.3628 205.438C98.3138 206.101 98.0909 206.741 97.7166 207.291C97.3424 207.841 96.8299 208.283 96.2308 208.572C95.6318 208.861 94.9673 208.987 94.3042 208.937C93.6411 208.887 93.0028 208.663 92.4536 208.288C91.9045 207.913 91.4637 207.399 91.1758 206.799C90.8879 206.199 90.763 205.533 90.8137 204.869L77.1762 181.862L76.0312 165.876Z" fill="#FFB6B6"/>
<path d="M80.6312 142.285C79.3175 142.489 78.0649 142.98 76.9623 143.723C75.8598 144.467 74.9344 145.444 74.2522 146.587C73.5699 147.729 73.1474 149.008 73.0148 150.332C72.8823 151.656 73.0428 152.994 73.4851 154.249L75.2861 159.36C75.2861 159.36 73.0174 174.75 76.7563 179.094L88.2293 178.054C88.2293 178.054 86.1317 170.29 87.7421 166.533C88.7284 164.233 88.6736 156.286 87.7018 149.822C86.9598 144.886 85.5577 141.521 80.6312 142.285Z" fill="#3F3D56"/>
<path d="M120.197 188.656C120.197 188.656 129.04 197.291 127.152 199.286C125.263 201.28 120.943 204.074 124.953 204.529C128.962 204.984 130.626 205.97 127.152 206.8C123.678 207.63 124.215 209.76 124.215 209.76C124.215 209.76 129.445 234.688 125.481 251.09C125.481 251.09 123.276 295.89 121.891 299.379C120.507 302.868 119.979 300.751 120.507 302.868C121.036 304.984 122.093 301.281 121.036 304.984C120.459 306.919 120.002 308.887 119.668 310.878L109.331 309.291C109.331 309.291 107.667 304.039 109.331 302.66C110.995 301.281 112.488 302.13 110.685 299.06C108.882 295.99 108.353 300.222 108.882 295.99C109.41 291.757 107.204 268.864 110.685 256.765L104.252 222.817L94.0392 257.968C94.0392 257.968 88.6221 300.9 86.862 302.413C85.1019 303.926 82.4597 301.281 85.1019 303.926C87.7441 306.572 87.6979 306.117 87.7441 306.572C88.2362 311.425 73.1072 306.117 73.1072 306.117C73.1913 304.883 73.1913 303.646 73.1072 302.413C72.9478 301.281 74.8519 300.918 73.1072 299.777C71.3625 298.635 73.9585 299.767 73.9585 299.767C73.9585 299.767 77.86 268.095 80.8282 258.497L84.2631 211.758C84.2631 211.758 84.4812 212.691 84.2631 210.425C84.045 208.159 82.4597 209.746 84.045 208.159C85.6303 206.571 86.6872 205.762 85.6303 204.58C84.5735 203.397 81.658 201.004 83.3799 199.555C85.1019 198.106 88.4906 188.656 88.4906 188.656L121.518 188.92" fill="#2F2E41"/>
<path d="M107.779 136.183L101.824 129.469L92.4141 130.516L86.3896 138.958C83.1829 139.696 80.3806 141.636 78.5593 144.38C76.7381 147.124 76.0364 150.463 76.5986 153.709C78.9365 167.188 86.8815 180.26 84.2581 186.911C80.2758 197.006 80.0328 201.124 89.5654 199.708C99.0979 198.293 131.034 195.03 124.842 188.831C118.651 182.631 117.291 172.272 117.291 172.272L117.042 148.571C117.306 147.141 117.27 145.673 116.939 144.258C116.608 142.842 115.988 141.511 115.118 140.348C114.248 139.184 113.147 138.213 111.884 137.497C110.621 136.78 109.223 136.333 107.779 136.183Z" fill="#3F3D56"/>
<path d="M106.152 162.173L114.639 160.956C117.51 165.761 118.53 178.553 118.53 178.553L126.836 198.319C127.386 198.693 127.828 199.206 128.117 199.805C128.406 200.405 128.533 201.07 128.484 201.734C128.435 202.398 128.212 203.037 127.838 203.587C127.463 204.138 126.951 204.58 126.352 204.869C125.753 205.158 125.088 205.284 124.425 205.234C123.762 205.184 123.124 204.96 122.575 204.584C122.026 204.209 121.585 203.695 121.297 203.095C121.009 202.495 120.884 201.83 120.935 201.166L107.297 178.158L106.152 162.173Z" fill="#FFB6B6"/>
<path d="M110.752 138.581C109.439 138.785 108.186 139.276 107.083 140.019C105.981 140.763 105.056 141.741 104.373 142.883C103.691 144.025 103.269 145.304 103.136 146.628C103.003 147.953 103.164 149.29 103.606 150.545L105.407 155.656C105.407 155.656 103.138 171.046 106.877 175.391L118.35 174.351C118.35 174.351 116.253 166.586 117.863 162.83C118.849 160.529 118.795 152.583 117.823 146.118C117.081 141.182 115.679 137.817 110.752 138.581Z" fill="#3F3D56"/>
<path d="M94.5314 128.891C100.813 128.891 105.905 123.792 105.905 117.503C105.905 111.214 100.813 106.115 94.5314 106.115C88.2499 106.115 83.1577 111.214 83.1577 117.503C83.1577 123.792 88.2499 128.891 94.5314 128.891Z" fill="#FFB6B6"/>
<path d="M92.4396 128.651C95.6073 127.856 95.7151 126.95 98.8828 126.155C99.8914 125.902 101.06 125.504 101.359 124.507C101.43 124.142 101.415 123.766 101.317 123.407C101.218 123.049 101.037 122.719 100.789 122.443C100.29 121.895 99.8227 121.32 99.389 120.719C99.1017 120.237 98.9361 119.692 98.9064 119.131C98.8767 118.57 98.9839 118.01 99.2186 117.5C99.4534 116.99 99.8087 116.545 100.254 116.203C100.699 115.861 101.22 115.633 101.773 115.539C102.753 115.371 103.764 115.631 104.75 115.505C106.102 115.332 108.092 110.308 107.225 109.254C106.381 108.229 104.995 107.617 104.53 106.373C104.226 105.559 104.392 104.649 104.256 103.79C104.055 102.517 101.483 106.042 101.825 104.799C102.665 101.752 88.4538 101.272 86.9743 105.182C86.4213 106.643 84.9244 106.875 83.773 107.929C83.0183 108.621 81.2134 110.833 80.9517 112.025C80.735 113.23 80.7767 114.468 81.0741 115.656C82.2543 121.225 84.2051 126.161 89.3977 128.481" fill="#2F2E41"/>
<path d="M2.7487 321.837L208.695 322C208.778 322 208.86 321.984 208.936 321.953C209.013 321.921 209.082 321.875 209.141 321.816C209.2 321.758 209.246 321.688 209.278 321.612C209.309 321.535 209.326 321.453 209.326 321.37C209.326 321.287 209.309 321.205 209.278 321.128C209.246 321.052 209.2 320.982 209.141 320.924C209.082 320.865 209.013 320.819 208.936 320.787C208.86 320.756 208.778 320.74 208.695 320.74L2.7487 320.577C2.66592 320.577 2.58391 320.593 2.50736 320.625C2.43081 320.656 2.36123 320.703 2.30261 320.761C2.24399 320.82 2.19748 320.889 2.16575 320.966C2.13401 321.042 2.11768 321.124 2.11768 321.207C2.11768 321.29 2.13401 321.372 2.16575 321.449C2.19748 321.525 2.24399 321.595 2.30261 321.653C2.36123 321.712 2.43081 321.758 2.50736 321.79C2.58391 321.822 2.66592 321.838 2.7487 321.837Z" fill="#CACACA"/>
</g>
<defs>
<clipPath id="clip0_4023_995">
<rect width="369" height="322" fill="white"/>
</clipPath>
</defs>
</svg>
